# MagicaVoxel @ Ephtracy

# group
o 

# material
mtllib fat boat.mtl
usemtl palette

# normals
vn -1 0 0
vn 1 0 0
vn 0 0 1
vn 0 0 -1
vn 0 -1 0
vn 0 1 0

# texcoords
vt 0.908203 0.5
vt 0.912109 0.5
vt 0.939453 0.5
vt 0.943359 0.5
vt 0.947266 0.5
vt 0.951172 0.5

# verts
v -0.5 0.2 0.7
v -0.5 0.2 0
v -0.5 0.4 0.7
v -0.5 0.4 0
v -0.4 0 0.7
v -0.4 0 0
v -0.4 0.2 0.8
v -0.4 0.2 0.7
v -0.4 0.2 0
v -0.4 0.2 -0.3
v -0.4 0.4 0.8
v -0.4 0.4 0.7
v -0.4 0.4 0
v -0.4 0.4 -0.3
v -0.4 0.6 0.4
v -0.4 0.6 0.3
v -0.4 0.6 0.1
v -0.4 0.7 0.4
v -0.4 0.7 0.3
v -0.4 0.7 0.1
v -0.3 0 0
v -0.3 0 -0.3
v -0.3 0.2 0
v -0.3 0.2 -0.3
v -0.3 0.2 -0.5
v -0.3 0.3 0.6
v -0.3 0.3 0.5
v -0.3 0.3 0.1
v -0.3 0.4 -0.3
v -0.3 0.4 -0.5
v -0.3 0.6 0.4
v -0.3 0.6 0.3
v -0.3 0.6 0.1
v -0.3 0.6 0
v -0.3 0.7 0.4
v -0.3 0.7 0.3
v -0.3 0.7 0.2
v -0.3 0.7 0.1
v -0.3 0.7 0
v -0.3 0.8 0.3
v -0.3 0.8 0.2
v -0.3 0.9 0.6
v -0.3 0.9 0.5
v -0.3 0.9 0.3
v -0.3 1 0.5
v -0.3 1 0.3
v -0.2 0 -0.3
v -0.2 0 -0.5
v -0.2 0.2 -0.3
v -0.2 0.2 -0.5
v -0.2 0.2 -0.7
v -0.2 0.4 -0.5
v -0.2 0.4 -0.7
v -0.1 0 -0.5
v -0.1 0 -0.7
v -0.1 0.2 -0.5
v -0.1 0.2 -0.7
v -0.1 0.2 -0.8
v -0.1 0.3 -0.1
v -0.1 0.3 -0.3
v -0.1 0.4 -0.7
v -0.1 0.4 -0.8
v -0.1 0.5 -0.1
v -0.1 0.5 -0.3
v -0.1 0.5 -0.4
v -0.1 0.6 -0.3
v -0.1 0.6 -0.4
v -0.1 0.6 -0.5
v -0.1 0.7 -0.4
v -0.1 0.7 -0.5
v 0 0.8 0.2
v 0 0.8 0.1
v 0 1 0.2
v 0 1 0.1
v 0.1 0.3 -0.5
v 0.1 0.3 -0.6
v 0.1 0.4 -0.5
v 0.1 0.4 -0.6
v 0.1 0.8 0.3
v 0.1 0.8 0.2
v 0.1 0.9 0.3
v 0.1 1 0.3
v 0.1 1 0.2
v 0.2 0.3 -0.3
v 0.2 0.3 -0.5
v 0.2 0.4 -0.3
v 0.2 0.4 -0.5
v 0.3 0.3 0
v 0.3 0.3 -0.3
v 0.3 0.4 0
v 0.3 0.4 -0.3
v 0.3 0.8 0.2
v 0.3 0.8 0.1
v 0.3 1 0.2
v 0.3 1 0.1
v 0.4 0.3 0.7
v 0.4 0.3 0
v 0.4 0.4 0.7
v 0.4 0.4 0
v -0.4 0.3 0.7
v -0.4 0.3 0
v -0.4 0.4 0.7
v -0.4 0.4 0
v -0.3 0.3 0
v -0.3 0.3 -0.3
v -0.3 0.4 0
v -0.3 0.4 -0.3
v -0.2 0.3 -0.3
v -0.2 0.3 -0.5
v -0.2 0.4 -0.3
v -0.2 0.4 -0.5
v -0.1 0.3 -0.5
v -0.1 0.3 -0.6
v -0.1 0.4 -0.5
v -0.1 0.4 -0.6
v 0.1 0 -0.5
v 0.1 0 -0.7
v 0.1 0.2 -0.5
v 0.1 0.2 -0.7
v 0.1 0.2 -0.8
v 0.1 0.3 -0.1
v 0.1 0.3 -0.3
v 0.1 0.4 -0.7
v 0.1 0.4 -0.8
v 0.1 0.5 -0.1
v 0.1 0.5 -0.3
v 0.1 0.5 -0.4
v 0.1 0.6 -0.3
v 0.1 0.6 -0.4
v 0.1 0.6 -0.5
v 0.1 0.7 -0.4
v 0.1 0.7 -0.5
v 0.1 0.8 0.2
v 0.1 0.8 0.1
v 0.1 1 0.2
v 0.1 1 0.1
v 0.2 0 -0.3
v 0.2 0 -0.5
v 0.2 0.2 -0.3
v 0.2 0.2 -0.5
v 0.2 0.2 -0.7
v 0.2 0.4 -0.5
v 0.2 0.4 -0.7
v 0.3 0 0
v 0.3 0 -0.3
v 0.3 0.2 0
v 0.3 0.2 -0.3
v 0.3 0.2 -0.5
v 0.3 0.3 0.6
v 0.3 0.3 0.5
v 0.3 0.3 0.1
v 0.3 0.4 -0.3
v 0.3 0.4 -0.5
v 0.3 0.6 0.4
v 0.3 0.6 0.3
v 0.3 0.6 0.1
v 0.3 0.6 0
v 0.3 0.7 0.4
v 0.3 0.7 0.3
v 0.3 0.7 0.2
v 0.3 0.7 0.1
v 0.3 0.7 0
v 0.3 0.8 0.3
v 0.3 0.8 0.2
v 0.3 0.9 0.6
v 0.3 0.9 0.5
v 0.3 0.9 0.3
v 0.3 1 0.5
v 0.3 1 0.3
v 0.3 1 0.2
v 0.4 0 0.7
v 0.4 0 0
v 0.4 0.2 0.8
v 0.4 0.2 0.7
v 0.4 0.2 0
v 0.4 0.2 -0.3
v 0.4 0.4 0.8
v 0.4 0.4 0.7
v 0.4 0.4 0
v 0.4 0.4 -0.3
v 0.4 0.6 0.4
v 0.4 0.6 0.3
v 0.4 0.6 0.1
v 0.4 0.7 0.4
v 0.4 0.7 0.3
v 0.4 0.7 0.1
v 0.4 0.8 0.2
v 0.4 0.8 0.1
v 0.4 1 0.2
v 0.4 1 0.1
v 0.5 0.2 0.7
v 0.5 0.2 0
v 0.5 0.4 0.7
v 0.5 0.4 0
v -0.4 0.2 0.8
v -0.4 0.4 0.8
v 0.4 0.2 0.8
v 0.4 0.4 0.8
v -0.5 0.2 0.7
v -0.5 0.4 0.7
v -0.4 0 0.7
v -0.4 0.2 0.7
v -0.4 0.4 0.7
v 0.4 0 0.7
v 0.4 0.2 0.7
v 0.4 0.4 0.7
v 0.5 0.2 0.7
v 0.5 0.4 0.7
v -0.3 0.3 0.6
v -0.3 0.9 0.6
v -0.2 0.3 0.6
v -0.2 0.9 0.6
v 0.2 0.3 0.6
v 0.2 0.9 0.6
v 0.3 0.3 0.6
v 0.3 0.9 0.6
v -0.3 0.9 0.5
v -0.3 1 0.5
v -0.2 0.9 0.5
v 0.2 0.9 0.5
v 0.3 0.9 0.5
v 0.3 1 0.5
v -0.4 0.6 0.4
v -0.4 0.7 0.4
v -0.3 0.6 0.4
v -0.3 0.7 0.4
v 0.3 0.6 0.4
v 0.3 0.7 0.4
v 0.4 0.6 0.4
v 0.4 0.7 0.4
v 0 0.8 0.2
v 0 1 0.2
v 0.1 0.8 0.2
v 0.1 1 0.2
v 0.3 0.8 0.2
v 0.3 1 0.2
v 0.4 0.8 0.2
v 0.4 1 0.2
v -0.4 0.3 0
v -0.4 0.4 0
v -0.3 0.3 0
v -0.3 0.4 0
v 0.3 0.3 0
v 0.3 0.4 0
v 0.4 0.3 0
v 0.4 0.4 0
v -0.1 0.3 -0.1
v -0.1 0.5 -0.1
v 0.1 0.3 -0.1
v 0.1 0.5 -0.1
v -0.3 0.3 -0.3
v -0.3 0.4 -0.3
v -0.2 0.3 -0.3
v -0.2 0.4 -0.3
v -0.1 0.5 -0.3
v -0.1 0.6 -0.3
v 0.1 0.5 -0.3
v 0.1 0.6 -0.3
v 0.2 0.3 -0.3
v 0.2 0.4 -0.3
v 0.3 0.3 -0.3
v 0.3 0.4 -0.3
v -0.1 0.6 -0.4
v -0.1 0.7 -0.4
v 0.1 0.6 -0.4
v 0.1 0.7 -0.4
v -0.2 0.3 -0.5
v -0.2 0.4 -0.5
v -0.1 0.3 -0.5
v -0.1 0.4 -0.5
v 0.1 0.3 -0.5
v 0.1 0.4 -0.5
v 0.2 0.3 -0.5
v 0.2 0.4 -0.5
v -0.1 0.3 -0.6
v -0.1 0.4 -0.6
v 0.1 0.3 -0.6
v 0.1 0.4 -0.6
v -0.4 0.3 0.7
v -0.4 0.4 0.7
v 0.4 0.3 0.7
v 0.4 0.4 0.7
v -0.3 0.8 0.3
v -0.3 0.9 0.3
v -0.3 1 0.3
v 0.1 0.8 0.3
v 0.1 0.9 0.3
v 0.1 1 0.3
v -0.3 0.7 0.2
v -0.3 0.8 0.2
v 0 0.8 0.2
v 0.1 0.8 0.2
v 0.1 1 0.2
v 0.3 0.7 0.2
v 0.3 0.8 0.2
v 0.3 1 0.2
v -0.4 0.6 0.1
v -0.4 0.7 0.1
v -0.3 0.3 0.1
v -0.3 0.6 0.1
v -0.3 0.7 0.1
v 0 0.8 0.1
v 0 1 0.1
v 0.1 0.8 0.1
v 0.1 1 0.1
v 0.3 0.3 0.1
v 0.3 0.6 0.1
v 0.3 0.7 0.1
v 0.3 0.8 0.1
v 0.3 1 0.1
v 0.4 0.6 0.1
v 0.4 0.7 0.1
v 0.4 0.8 0.1
v 0.4 1 0.1
v -0.5 0.2 0
v -0.5 0.4 0
v -0.4 0 0
v -0.4 0.2 0
v -0.4 0.4 0
v -0.3 0 0
v -0.3 0.2 0
v -0.3 0.6 0
v -0.3 0.7 0
v 0.3 0 0
v 0.3 0.2 0
v 0.3 0.6 0
v 0.3 0.7 0
v 0.4 0 0
v 0.4 0.2 0
v 0.4 0.4 0
v 0.5 0.2 0
v 0.5 0.4 0
v -0.4 0.2 -0.3
v -0.4 0.4 -0.3
v -0.3 0 -0.3
v -0.3 0.2 -0.3
v -0.3 0.4 -0.3
v -0.2 0 -0.3
v -0.2 0.2 -0.3
v -0.1 0.3 -0.3
v -0.1 0.5 -0.3
v 0.1 0.3 -0.3
v 0.1 0.5 -0.3
v 0.2 0 -0.3
v 0.2 0.2 -0.3
v 0.3 0 -0.3
v 0.3 0.2 -0.3
v 0.3 0.4 -0.3
v 0.4 0.2 -0.3
v 0.4 0.4 -0.3
v -0.1 0.5 -0.4
v -0.1 0.6 -0.4
v 0.1 0.5 -0.4
v 0.1 0.6 -0.4
v -0.3 0.2 -0.5
v -0.3 0.4 -0.5
v -0.2 0 -0.5
v -0.2 0.2 -0.5
v -0.2 0.4 -0.5
v -0.1 0 -0.5
v -0.1 0.2 -0.5
v -0.1 0.6 -0.5
v -0.1 0.7 -0.5
v 0.1 0 -0.5
v 0.1 0.2 -0.5
v 0.1 0.6 -0.5
v 0.1 0.7 -0.5
v 0.2 0 -0.5
v 0.2 0.2 -0.5
v 0.2 0.4 -0.5
v 0.3 0.2 -0.5
v 0.3 0.4 -0.5
v -0.2 0.2 -0.7
v -0.2 0.4 -0.7
v -0.1 0 -0.7
v -0.1 0.2 -0.7
v -0.1 0.4 -0.7
v 0.1 0 -0.7
v 0.1 0.2 -0.7
v 0.1 0.4 -0.7
v 0.2 0.2 -0.7
v 0.2 0.4 -0.7
v -0.1 0.2 -0.8
v -0.1 0.4 -0.8
v 0.1 0.2 -0.8
v 0.1 0.4 -0.8
v -0.4 0 0.7
v 0.4 0 0.7
v -0.4 0 0
v -0.3 0 0
v 0.3 0 0
v 0.4 0 0
v -0.3 0 -0.3
v -0.2 0 -0.3
v 0.2 0 -0.3
v 0.3 0 -0.3
v -0.2 0 -0.5
v -0.1 0 -0.5
v 0.1 0 -0.5
v 0.2 0 -0.5
v -0.1 0 -0.7
v 0.1 0 -0.7
v -0.4 0.2 0.8
v 0.4 0.2 0.8
v -0.5 0.2 0.7
v -0.4 0.2 0.7
v 0.4 0.2 0.7
v 0.5 0.2 0.7
v -0.5 0.2 0
v -0.4 0.2 0
v -0.3 0.2 0
v 0.3 0.2 0
v 0.4 0.2 0
v 0.5 0.2 0
v -0.4 0.2 -0.3
v -0.3 0.2 -0.3
v -0.2 0.2 -0.3
v 0.2 0.2 -0.3
v 0.3 0.2 -0.3
v 0.4 0.2 -0.3
v -0.3 0.2 -0.5
v -0.2 0.2 -0.5
v -0.1 0.2 -0.5
v 0.1 0.2 -0.5
v 0.2 0.2 -0.5
v 0.3 0.2 -0.5
v -0.2 0.2 -0.7
v -0.1 0.2 -0.7
v 0.1 0.2 -0.7
v 0.2 0.2 -0.7
v -0.1 0.2 -0.8
v 0.1 0.2 -0.8
v -0.1 0.5 -0.3
v 0.1 0.5 -0.3
v -0.1 0.5 -0.4
v 0.1 0.5 -0.4
v -0.4 0.6 0.4
v -0.3 0.6 0.4
v 0.3 0.6 0.4
v 0.4 0.6 0.4
v -0.4 0.6 0.3
v -0.3 0.6 0.3
v 0.3 0.6 0.3
v 0.4 0.6 0.3
v -0.4 0.6 0.1
v -0.3 0.6 0.1
v 0.3 0.6 0.1
v 0.4 0.6 0.1
v -0.3 0.6 0
v 0.3 0.6 0
v -0.1 0.6 -0.4
v 0.1 0.6 -0.4
v -0.1 0.6 -0.5
v 0.1 0.6 -0.5
v 0 0.8 0.2
v 0.1 0.8 0.2
v 0.3 0.8 0.2
v 0.4 0.8 0.2
v 0 0.8 0.1
v 0.1 0.8 0.1
v 0.3 0.8 0.1
v 0.4 0.8 0.1
v -0.4 0.3 0.7
v 0.4 0.3 0.7
v -0.3 0.3 0.6
v -0.2 0.3 0.6
v 0.2 0.3 0.6
v 0.3 0.3 0.6
v -0.3 0.3 0.5
v 0.3 0.3 0.5
v -0.3 0.3 0.1
v 0.3 0.3 0.1
v -0.4 0.3 0
v -0.3 0.3 0
v 0.3 0.3 0
v 0.4 0.3 0
v -0.1 0.3 -0.1
v 0.1 0.3 -0.1
v -0.3 0.3 -0.3
v -0.2 0.3 -0.3
v -0.1 0.3 -0.3
v 0.1 0.3 -0.3
v 0.2 0.3 -0.3
v 0.3 0.3 -0.3
v -0.2 0.3 -0.5
v -0.1 0.3 -0.5
v 0.1 0.3 -0.5
v 0.2 0.3 -0.5
v -0.1 0.3 -0.6
v 0.1 0.3 -0.6
v -0.4 0.4 0.8
v 0.4 0.4 0.8
v -0.5 0.4 0.7
v -0.4 0.4 0.7
v 0.4 0.4 0.7
v 0.5 0.4 0.7
v -0.5 0.4 0
v -0.4 0.4 0
v -0.3 0.4 0
v 0.3 0.4 0
v 0.4 0.4 0
v 0.5 0.4 0
v -0.4 0.4 -0.3
v -0.3 0.4 -0.3
v -0.2 0.4 -0.3
v 0.2 0.4 -0.3
v 0.3 0.4 -0.3
v 0.4 0.4 -0.3
v -0.3 0.4 -0.5
v -0.2 0.4 -0.5
v -0.1 0.4 -0.5
v 0.1 0.4 -0.5
v 0.2 0.4 -0.5
v 0.3 0.4 -0.5
v -0.1 0.4 -0.6
v 0.1 0.4 -0.6
v -0.2 0.4 -0.7
v -0.1 0.4 -0.7
v 0.1 0.4 -0.7
v 0.2 0.4 -0.7
v -0.1 0.4 -0.8
v 0.1 0.4 -0.8
v -0.1 0.5 -0.1
v 0.1 0.5 -0.1
v -0.1 0.5 -0.3
v 0.1 0.5 -0.3
v -0.1 0.6 -0.3
v 0.1 0.6 -0.3
v -0.1 0.6 -0.4
v 0.1 0.6 -0.4
v -0.4 0.7 0.4
v -0.3 0.7 0.4
v 0.3 0.7 0.4
v 0.4 0.7 0.4
v -0.4 0.7 0.3
v -0.3 0.7 0.3
v 0.3 0.7 0.3
v 0.4 0.7 0.3
v -0.3 0.7 0.2
v 0.3 0.7 0.2
v -0.4 0.7 0.1
v -0.3 0.7 0.1
v 0.3 0.7 0.1
v 0.4 0.7 0.1
v -0.3 0.7 0
v 0.3 0.7 0
v -0.1 0.7 -0.4
v 0.1 0.7 -0.4
v -0.1 0.7 -0.5
v 0.1 0.7 -0.5
v -0.3 0.8 0.3
v 0.1 0.8 0.3
v -0.3 0.8 0.2
v 0 0.8 0.2
v 0.1 0.8 0.2
v -0.3 0.9 0.6
v -0.2 0.9 0.6
v 0.2 0.9 0.6
v 0.3 0.9 0.6
v -0.3 0.9 0.5
v -0.2 0.9 0.5
v 0.2 0.9 0.5
v 0.3 0.9 0.5
v -0.3 1 0.5
v 0.3 1 0.5
v -0.3 1 0.3
v 0.1 1 0.3
v 0.3 1 0.3
v 0 1 0.2
v 0.1 1 0.2
v 0.3 1 0.2
v 0.4 1 0.2
v 0 1 0.1
v 0.1 1 0.1
v 0.3 1 0.1
v 0.4 1 0.1

# faces
f 3/4/1 2/4/1 1/4/1
f 4/4/1 2/4/1 3/4/1
f 8/3/1 6/3/1 5/3/1
f 9/3/1 6/3/1 8/3/1
f 11/4/1 8/4/1 7/4/1
f 12/4/1 8/4/1 11/4/1
f 13/4/1 10/4/1 9/4/1
f 14/4/1 10/4/1 13/4/1
f 18/4/1 16/4/1 15/4/1
f 19/3/1 17/3/1 16/3/1
f 19/4/1 16/4/1 18/4/1
f 20/3/1 17/3/1 19/3/1
f 23/3/1 22/3/1 21/3/1
f 24/3/1 22/3/1 23/3/1
f 29/4/1 25/4/1 24/4/1
f 30/4/1 25/4/1 29/4/1
f 31/2/1 28/2/1 27/2/1
f 32/2/1 28/2/1 31/2/1
f 33/2/1 28/2/1 32/2/1
f 35/2/1 31/2/1 27/2/1
f 38/3/1 34/3/1 33/3/1
f 39/3/1 34/3/1 38/3/1
f 40/2/1 37/2/1 36/2/1
f 40/2/1 36/2/1 35/2/1
f 41/2/1 37/2/1 40/2/1
f 42/4/1 27/4/1 26/4/1
f 43/2/1 35/2/1 27/2/1
f 43/4/1 27/4/1 42/4/1
f 43/2/1 40/2/1 35/2/1
f 44/2/1 40/2/1 43/2/1
f 45/4/1 44/4/1 43/4/1
f 46/4/1 44/4/1 45/4/1
f 49/3/1 48/3/1 47/3/1
f 50/3/1 48/3/1 49/3/1
f 52/4/1 51/4/1 50/4/1
f 53/4/1 51/4/1 52/4/1
f 56/3/1 55/3/1 54/3/1
f 57/3/1 55/3/1 56/3/1
f 61/4/1 58/4/1 57/4/1
f 62/4/1 58/4/1 61/4/1
f 63/2/1 60/2/1 59/2/1
f 64/2/1 60/2/1 63/2/1
f 66/1/1 65/1/1 64/1/1
f 67/1/1 65/1/1 66/1/1
f 69/1/1 68/1/1 67/1/1
f 70/1/1 68/1/1 69/1/1
f 73/5/1 72/5/1 71/5/1
f 74/5/1 72/5/1 73/5/1
f 77/4/1 76/4/1 75/4/1
f 78/4/1 76/4/1 77/4/1
f 81/5/1 80/5/1 79/5/1
f 82/5/1 80/5/1 81/5/1
f 83/5/1 80/5/1 82/5/1
f 86/4/1 85/4/1 84/4/1
f 87/4/1 85/4/1 86/4/1
f 90/4/1 89/4/1 88/4/1
f 91/4/1 89/4/1 90/4/1
f 94/5/1 93/5/1 92/5/1
f 95/5/1 93/5/1 94/5/1
f 98/4/1 97/4/1 96/4/1
f 99/4/1 97/4/1 98/4/1
f 100/4/2 101/4/2 102/4/2
f 102/4/2 101/4/2 103/4/2
f 104/4/2 105/4/2 106/4/2
f 106/4/2 105/4/2 107/4/2
f 108/4/2 109/4/2 110/4/2
f 110/4/2 109/4/2 111/4/2
f 112/4/2 113/4/2 114/4/2
f 114/4/2 113/4/2 115/4/2
f 116/3/2 117/3/2 118/3/2
f 118/3/2 117/3/2 119/3/2
f 119/4/2 120/4/2 123/4/2
f 123/4/2 120/4/2 124/4/2
f 121/2/2 122/2/2 125/2/2
f 125/2/2 122/2/2 126/2/2
f 126/1/2 127/1/2 128/1/2
f 128/1/2 127/1/2 129/1/2
f 129/1/2 130/1/2 131/1/2
f 131/1/2 130/1/2 132/1/2
f 133/5/2 134/5/2 135/5/2
f 135/5/2 134/5/2 136/5/2
f 137/3/2 138/3/2 139/3/2
f 139/3/2 138/3/2 140/3/2
f 140/4/2 141/4/2 142/4/2
f 142/4/2 141/4/2 143/4/2
f 144/3/2 145/3/2 146/3/2
f 146/3/2 145/3/2 147/3/2
f 147/4/2 148/4/2 152/4/2
f 152/4/2 148/4/2 153/4/2
f 150/2/2 151/2/2 154/2/2
f 154/2/2 151/2/2 155/2/2
f 155/2/2 151/2/2 156/2/2
f 150/2/2 154/2/2 158/2/2
f 156/3/2 157/3/2 161/3/2
f 161/3/2 157/3/2 162/3/2
f 159/2/2 160/2/2 163/2/2
f 158/2/2 159/2/2 163/2/2
f 163/2/2 160/2/2 164/2/2
f 149/4/2 150/4/2 165/4/2
f 150/2/2 158/2/2 166/2/2
f 165/4/2 150/4/2 166/4/2
f 158/2/2 163/2/2 166/2/2
f 163/5/2 164/5/2 167/5/2
f 166/2/2 163/2/2 167/2/2
f 166/4/2 167/4/2 168/4/2
f 167/5/2 164/5/2 169/5/2
f 168/4/2 167/4/2 169/4/2
f 169/5/2 164/5/2 170/5/2
f 171/3/2 172/3/2 174/3/2
f 174/3/2 172/3/2 175/3/2
f 173/4/2 174/4/2 177/4/2
f 177/4/2 174/4/2 178/4/2
f 175/4/2 176/4/2 179/4/2
f 179/4/2 176/4/2 180/4/2
f 181/4/2 182/4/2 184/4/2
f 182/3/2 183/3/2 185/3/2
f 184/4/2 182/4/2 185/4/2
f 185/3/2 183/3/2 186/3/2
f 187/5/2 188/5/2 189/5/2
f 189/5/2 188/5/2 190/5/2
f 191/4/2 192/4/2 193/4/2
f 193/4/2 192/4/2 194/4/2
f 197/4/3 196/4/3 195/4/3
f 198/4/3 196/4/3 197/4/3
f 202/4/3 200/4/3 199/4/3
f 203/4/3 200/4/3 202/4/3
f 204/3/3 202/3/3 201/3/3
f 205/3/3 202/3/3 204/3/3
f 207/4/3 206/4/3 205/4/3
f 208/4/3 206/4/3 207/4/3
f 211/4/3 210/4/3 209/4/3
f 212/4/3 210/4/3 211/4/3
f 213/2/3 212/2/3 211/2/3
f 214/2/3 212/2/3 213/2/3
f 215/4/3 214/4/3 213/4/3
f 216/4/3 214/4/3 215/4/3
f 219/4/3 218/4/3 217/4/3
f 220/4/3 218/4/3 219/4/3
f 221/4/3 218/4/3 220/4/3
f 222/4/3 218/4/3 221/4/3
f 225/4/3 224/4/3 223/4/3
f 226/4/3 224/4/3 225/4/3
f 229/4/3 228/4/3 227/4/3
f 230/4/3 228/4/3 229/4/3
f 233/5/3 232/5/3 231/5/3
f 234/5/3 232/5/3 233/5/3
f 237/5/3 236/5/3 235/5/3
f 238/5/3 236/5/3 237/5/3
f 241/4/3 240/4/3 239/4/3
f 242/4/3 240/4/3 241/4/3
f 245/4/3 244/4/3 243/4/3
f 246/4/3 244/4/3 245/4/3
f 249/2/3 248/2/3 247/2/3
f 250/2/3 248/2/3 249/2/3
f 253/4/3 252/4/3 251/4/3
f 254/4/3 252/4/3 253/4/3
f 257/1/3 256/1/3 255/1/3
f 258/1/3 256/1/3 257/1/3
f 261/4/3 260/4/3 259/4/3
f 262/4/3 260/4/3 261/4/3
f 265/1/3 264/1/3 263/1/3
f 266/1/3 264/1/3 265/1/3
f 269/4/3 268/4/3 267/4/3
f 270/4/3 268/4/3 269/4/3
f 273/4/3 272/4/3 271/4/3
f 274/4/3 272/4/3 273/4/3
f 277/4/3 276/4/3 275/4/3
f 278/4/3 276/4/3 277/4/3
f 279/4/4 280/4/4 281/4/4
f 281/4/4 280/4/4 282/4/4
f 283/2/4 284/2/4 286/2/4
f 284/4/4 285/4/4 287/4/4
f 286/2/4 284/2/4 287/2/4
f 287/4/4 285/4/4 288/4/4
f 289/2/4 290/2/4 291/2/4
f 289/2/4 291/2/4 292/2/4
f 289/2/4 292/2/4 294/2/4
f 292/5/4 293/5/4 295/5/4
f 294/2/4 292/2/4 295/2/4
f 295/5/4 293/5/4 296/5/4
f 297/3/4 298/3/4 300/3/4
f 300/3/4 298/3/4 301/3/4
f 302/5/4 303/5/4 304/5/4
f 304/5/4 303/5/4 305/5/4
f 299/2/4 300/2/4 306/2/4
f 306/2/4 300/2/4 307/2/4
f 307/3/4 308/3/4 311/3/4
f 311/3/4 308/3/4 312/3/4
f 309/5/4 310/5/4 313/5/4
f 313/5/4 310/5/4 314/5/4
f 315/4/4 316/4/4 318/4/4
f 318/4/4 316/4/4 319/4/4
f 317/3/4 318/3/4 320/3/4
f 320/3/4 318/3/4 321/3/4
f 322/3/4 323/3/4 326/3/4
f 326/3/4 323/3/4 327/3/4
f 324/3/4 325/3/4 328/3/4
f 328/3/4 325/3/4 329/3/4
f 329/4/4 330/4/4 331/4/4
f 331/4/4 330/4/4 332/4/4
f 333/4/4 334/4/4 336/4/4
f 336/4/4 334/4/4 337/4/4
f 335/3/4 336/3/4 338/3/4
f 338/3/4 336/3/4 339/3/4
f 340/2/4 341/2/4 342/2/4
f 342/2/4 341/2/4 343/2/4
f 344/3/4 345/3/4 346/3/4
f 346/3/4 345/3/4 347/3/4
f 347/4/4 348/4/4 349/4/4
f 349/4/4 348/4/4 350/4/4
f 351/1/4 352/1/4 353/1/4
f 353/1/4 352/1/4 354/1/4
f 355/4/4 356/4/4 358/4/4
f 358/4/4 356/4/4 359/4/4
f 357/3/4 358/3/4 360/3/4
f 360/3/4 358/3/4 361/3/4
f 362/1/4 363/1/4 366/1/4
f 366/1/4 363/1/4 367/1/4
f 364/3/4 365/3/4 368/3/4
f 368/3/4 365/3/4 369/3/4
f 369/4/4 370/4/4 371/4/4
f 371/4/4 370/4/4 372/4/4
f 373/4/4 374/4/4 376/4/4
f 376/4/4 374/4/4 377/4/4
f 375/3/4 376/3/4 378/3/4
f 378/3/4 376/3/4 379/3/4
f 379/4/4 380/4/4 381/4/4
f 381/4/4 380/4/4 382/4/4
f 383/4/4 384/4/4 385/4/4
f 385/4/4 384/4/4 386/4/4
f 389/3/5 388/3/5 387/3/5
f 390/3/5 388/3/5 389/3/5
f 391/3/5 388/3/5 390/3/5
f 392/3/5 388/3/5 391/3/5
f 393/3/5 391/3/5 390/3/5
f 394/3/5 391/3/5 393/3/5
f 395/3/5 391/3/5 394/3/5
f 396/3/5 391/3/5 395/3/5
f 397/3/5 395/3/5 394/3/5
f 398/3/5 395/3/5 397/3/5
f 399/3/5 395/3/5 398/3/5
f 400/3/5 395/3/5 399/3/5
f 401/3/5 399/3/5 398/3/5
f 402/3/5 399/3/5 401/3/5
f 406/4/5 404/4/5 403/4/5
f 407/4/5 404/4/5 406/4/5
f 409/4/5 406/4/5 405/4/5
f 410/4/5 406/4/5 409/4/5
f 413/4/5 408/4/5 407/4/5
f 414/4/5 408/4/5 413/4/5
f 415/4/5 411/4/5 410/4/5
f 416/4/5 411/4/5 415/4/5
f 419/4/5 413/4/5 412/4/5
f 420/4/5 413/4/5 419/4/5
f 421/4/5 417/4/5 416/4/5
f 422/4/5 417/4/5 421/4/5
f 425/4/5 419/4/5 418/4/5
f 426/4/5 419/4/5 425/4/5
f 427/4/5 423/4/5 422/4/5
f 428/4/5 423/4/5 427/4/5
f 429/4/5 425/4/5 424/4/5
f 430/4/5 425/4/5 429/4/5
f 431/4/5 429/4/5 428/4/5
f 432/4/5 429/4/5 431/4/5
f 435/1/5 434/1/5 433/1/5
f 436/1/5 434/1/5 435/1/5
f 441/4/5 438/4/5 437/4/5
f 442/4/5 438/4/5 441/4/5
f 443/4/5 440/4/5 439/4/5
f 444/4/5 440/4/5 443/4/5
f 445/3/5 442/3/5 441/3/5
f 446/3/5 442/3/5 445/3/5
f 447/3/5 444/3/5 443/3/5
f 448/3/5 444/3/5 447/3/5
f 449/3/5 447/3/5 446/3/5
f 450/3/5 447/3/5 449/3/5
f 453/1/5 452/1/5 451/1/5
f 454/1/5 452/1/5 453/1/5
f 459/5/5 456/5/5 455/5/5
f 460/5/5 456/5/5 459/5/5
f 461/5/5 458/5/5 457/5/5
f 462/5/5 458/5/5 461/5/5
f 463/6/6 464/6/6 465/6/6
f 465/6/6 464/6/6 466/6/6
f 466/6/6 464/6/6 467/6/6
f 467/6/6 464/6/6 468/6/6
f 463/6/6 465/6/6 469/6/6
f 468/6/6 464/6/6 470/6/6
f 463/6/6 469/6/6 471/6/6
f 470/6/6 464/6/6 472/6/6
f 463/6/6 471/6/6 473/6/6
f 471/6/6 472/6/6 473/6/6
f 473/6/6 472/6/6 474/6/6
f 472/6/6 464/6/6 475/6/6
f 474/6/6 472/6/6 475/6/6
f 475/6/6 464/6/6 476/6/6
f 474/6/6 475/6/6 477/6/6
f 477/6/6 475/6/6 478/6/6
f 474/6/6 477/6/6 479/6/6
f 479/6/6 477/6/6 480/6/6
f 480/6/6 477/6/6 481/6/6
f 478/6/6 475/6/6 482/6/6
f 482/6/6 475/6/6 483/6/6
f 483/6/6 475/6/6 484/6/6
f 480/6/6 481/6/6 485/6/6
f 482/6/6 483/6/6 485/6/6
f 481/6/6 482/6/6 485/6/6
f 485/6/6 483/6/6 486/6/6
f 486/6/6 483/6/6 487/6/6
f 487/6/6 483/6/6 488/6/6
f 486/6/6 487/6/6 489/6/6
f 489/6/6 487/6/6 490/6/6
f 491/4/6 492/4/6 494/4/6
f 494/4/6 492/4/6 495/4/6
f 493/4/6 494/4/6 497/4/6
f 497/4/6 494/4/6 498/4/6
f 495/4/6 496/4/6 501/4/6
f 501/4/6 496/4/6 502/4/6
f 498/4/6 499/4/6 503/4/6
f 503/4/6 499/4/6 504/4/6
f 500/4/6 501/4/6 507/4/6
f 507/4/6 501/4/6 508/4/6
f 504/4/6 505/4/6 509/4/6
f 509/4/6 505/4/6 510/4/6
f 506/4/6 507/4/6 513/4/6
f 513/4/6 507/4/6 514/4/6
f 510/4/6 511/4/6 515/4/6
f 512/4/6 513/4/6 516/4/6
f 510/4/6 515/4/6 517/4/6
f 515/4/6 516/4/6 517/4/6
f 517/4/6 516/4/6 518/4/6
f 516/4/6 513/4/6 519/4/6
f 518/4/6 516/4/6 519/4/6
f 519/4/6 513/4/6 520/4/6
f 518/4/6 519/4/6 521/4/6
f 521/4/6 519/4/6 522/4/6
f 523/2/6 524/2/6 525/2/6
f 525/2/6 524/2/6 526/2/6
f 527/1/6 528/1/6 529/1/6
f 529/1/6 528/1/6 530/1/6
f 531/4/6 532/4/6 535/4/6
f 535/4/6 532/4/6 536/4/6
f 533/4/6 534/4/6 537/4/6
f 537/4/6 534/4/6 538/4/6
f 535/3/6 536/3/6 539/3/6
f 537/3/6 538/3/6 540/3/6
f 535/3/6 539/3/6 541/3/6
f 539/2/6 540/2/6 542/2/6
f 541/3/6 539/3/6 542/3/6
f 540/3/6 538/3/6 543/3/6
f 542/2/6 540/2/6 543/2/6
f 543/3/6 538/3/6 544/3/6
f 542/3/6 543/3/6 545/3/6
f 545/3/6 543/3/6 546/3/6
f 547/1/6 548/1/6 549/1/6
f 549/1/6 548/1/6 550/1/6
f 551/2/6 552/2/6 553/2/6
f 553/2/6 552/2/6 554/2/6
f 554/2/6 552/2/6 555/2/6
f 556/4/6 557/4/6 560/4/6
f 557/2/6 558/2/6 561/2/6
f 560/4/6 557/4/6 561/4/6
f 558/4/6 559/4/6 562/4/6
f 561/2/6 558/2/6 562/2/6
f 562/4/6 559/4/6 563/4/6
f 564/4/6 565/4/6 566/4/6
f 566/4/6 565/4/6 567/4/6
f 567/4/6 565/4/6 568/4/6
f 567/5/6 568/5/6 570/5/6
f 570/5/6 568/5/6 571/5/6
f 569/5/6 570/5/6 573/5/6
f 573/5/6 570/5/6 574/5/6
f 571/5/6 572/5/6 575/5/6
f 575/5/6 572/5/6 576/5/6
