# MagicaVoxel @ Ephtracy

# group
o 

# material
mtllib lazer sight.mtl
usemtl palette

# normals
vn -1 0 0
vn 1 0 0
vn 0 0 1
vn 0 0 -1
vn 0 -1 0
vn 0 1 0

# texcoords
vt 0.986328 0.5
vt 0.990234 0.5

# verts
v 0.5 3.1 -0.2
v 0.5 3.1 -0.5
v 0.5 3.4 -0.3
v 0.5 3.4 -0.4
v 0.5 3.5 -0.2
v 0.5 3.5 -0.3
v 0.5 3.5 -0.4
v 0.5 3.5 -0.5
v 0.5 3.6 -0.2
v 0.5 3.6 -0.3
v 0.5 3.6 -0.4
v 0.5 3.6 -0.5
v 0.5 3.7 -0.2
v 0.5 3.7 -0.3
v 0.5 3.7 -0.4
v 0.5 3.7 -0.5
v 1.7 3.1 -0.2
v 1.7 3.1 -0.5
v 1.7 3.7 -0.2
v 1.7 3.7 -0.5
v 0.5 3.1 -0.2
v 0.5 3.5 -0.2
v 0.5 3.6 -0.2
v 0.5 3.7 -0.2
v 0.6 3.5 -0.2
v 0.6 3.6 -0.2
v 1.7 3.1 -0.2
v 1.7 3.7 -0.2
v 0.5 3.1 -0.5
v 0.5 3.5 -0.5
v 0.5 3.6 -0.5
v 0.5 3.7 -0.5
v 0.6 3.5 -0.5
v 0.6 3.6 -0.5
v 1.7 3.1 -0.5
v 1.7 3.7 -0.5
v 0.5 3.1 -0.2
v 1.7 3.1 -0.2
v 0.5 3.1 -0.5
v 1.7 3.1 -0.5
v 0.5 3.7 -0.2
v 1.7 3.7 -0.2
v 0.5 3.7 -0.3
v 0.6 3.7 -0.3
v 0.5 3.7 -0.4
v 0.6 3.7 -0.4
v 0.5 3.7 -0.5
v 1.7 3.7 -0.5

# faces
f 3/2/1 2/2/1 1/2/1
f 4/2/1 2/2/1 3/2/1
f 5/2/1 3/2/1 1/2/1
f 6/1/1 4/1/1 3/1/1
f 6/2/1 3/2/1 5/2/1
f 7/2/1 2/2/1 4/2/1
f 7/1/1 4/1/1 6/1/1
f 8/2/1 2/2/1 7/2/1
f 9/1/1 6/1/1 5/1/1
f 10/2/1 7/2/1 6/2/1
f 10/1/1 6/1/1 9/1/1
f 11/1/1 8/1/1 7/1/1
f 11/2/1 7/2/1 10/2/1
f 12/1/1 8/1/1 11/1/1
f 13/2/1 10/2/1 9/2/1
f 14/1/1 11/1/1 10/1/1
f 14/2/1 10/2/1 13/2/1
f 15/2/1 12/2/1 11/2/1
f 15/1/1 11/1/1 14/1/1
f 16/2/1 12/2/1 15/2/1
f 17/2/2 18/2/2 19/2/2
f 19/2/2 18/2/2 20/2/2
f 25/2/3 22/2/3 21/2/3
f 25/1/3 23/1/3 22/1/3
f 26/2/3 24/2/3 23/2/3
f 26/1/3 23/1/3 25/1/3
f 27/2/3 25/2/3 21/2/3
f 27/2/3 26/2/3 25/2/3
f 28/2/3 24/2/3 26/2/3
f 28/2/3 26/2/3 27/2/3
f 29/2/4 30/2/4 33/2/4
f 30/1/4 31/1/4 33/1/4
f 31/2/4 32/2/4 34/2/4
f 33/1/4 31/1/4 34/1/4
f 29/2/4 33/2/4 35/2/4
f 33/2/4 34/2/4 35/2/4
f 34/2/4 32/2/4 36/2/4
f 35/2/4 34/2/4 36/2/4
f 39/2/5 38/2/5 37/2/5
f 40/2/5 38/2/5 39/2/5
f 41/2/6 42/2/6 43/2/6
f 43/2/6 42/2/6 44/2/6
f 43/1/6 44/1/6 45/1/6
f 44/2/6 42/2/6 46/2/6
f 45/1/6 44/1/6 46/1/6
f 45/2/6 46/2/6 47/2/6
f 46/2/6 42/2/6 48/2/6
f 47/2/6 46/2/6 48/2/6
