# MagicaVoxel @ Ephtracy

# group
o 

# material
mtllib M16.mtl
usemtl palette

# normals
vn -1 0 0
vn 1 0 0
vn 0 0 1
vn 0 0 -1
vn 0 -1 0
vn 0 1 0

# texcoords
vt 0.841797 0.5
vt 0.986328 0.5
vt 0.990234 0.5
vt 0.994141 0.5

# verts
v -3.3 4.4 0.6
v -3.3 4.4 0.3
v -3.3 5.3 0.6
v -3.3 5.3 0.3
v -1.9 4.1 0.6
v -1.9 4.1 0.3
v -1.9 4.4 0.6
v -1.9 4.4 0.3
v -1.8 4 0.6
v -1.8 4 0.3
v -1.8 4.1 0.6
v -1.8 4.1 0.3
v -1.8 4.4 0.6
v -1.8 4.4 0.3
v -1.8 4.6 0.6
v -1.8 4.6 0.3
v -1.7 4.6 0.6
v -1.7 4.6 0.3
v -1.7 4.8 0.6
v -1.7 4.8 0.3
v -1.6 4.8 0.6
v -1.6 4.8 0.3
v -1.6 4.9 0.6
v -1.6 4.9 0.3
v -1.4 5.3 0.6
v -1.4 5.3 0.3
v -1.4 5.4 0.6
v -1.4 5.4 0.3
v -1.3 5.4 0.6
v -1.3 5.4 0.3
v -1.3 5.6 0.6
v -1.3 5.6 0.3
v -1.2 5.6 0.6
v -1.2 5.6 0.3
v -1.2 5.7 0.6
v -1.2 5.7 0.3
v -1.1 5.7 0.6
v -1.1 5.7 0.5
v -1.1 5.7 0.4
v -1.1 5.7 0.3
v -1.1 5.8 0.6
v -1.1 5.8 0.5
v -1.1 5.8 0.4
v -1.1 5.8 0.3
v -1 4.8 0.6
v -1 4.8 0.3
v -1 4.9 0.6
v -1 4.9 0.3
v -0.6 4.7 0.6
v -0.6 4.7 0.3
v -0.6 5 0.6
v -0.6 5 0.3
v -0.5 3.5 0.6
v -0.5 3.5 0.3
v -0.5 4.3 0.6
v -0.5 4.3 0.3
v -0.5 4.6 0.6
v -0.5 4.6 0.3
v -0.4 3.4 0.6
v -0.4 3.4 0.3
v -0.4 3.5 0.6
v -0.4 3.5 0.3
v 0.1 5.3 0.6
v 0.1 5.3 0.3
v 0.1 5.4 0.6
v 0.1 5.4 0.3
v 0.200001 5.4 0.6
v 0.200001 5.4 0.3
v 0.200001 5.6 0.6
v 0.200001 5.6 0.3
v 2.4 5.3 0.5
v 2.4 5.3 0.4
v 2.4 5.4 0.5
v 2.4 5.4 0.4
v 2.5 5.4 0.5
v 2.5 5.4 0.4
v 2.5 5.5 0.5
v 2.5 5.5 0.4
v 2.6 5.5 0.5
v 2.6 5.5 0.4
v 2.6 5.6 0.5
v 2.6 5.6 0.4
v 2.7 5.6 0.5
v 2.7 5.6 0.4
v 2.7 5.7 0.5
v 2.7 5.7 0.4
v 2.8 5.2 0.5
v 2.8 5.2 0.4
v 2.8 5.5 0.5
v 2.8 5.5 0.4
v -2.9 4.4 0.6
v -2.9 4.4 0.3
v -2.9 4.5 0.6
v -2.9 4.5 0.3
v -2.7 4.5 0.6
v -2.7 4.5 0.3
v -2.7 4.6 0.6
v -2.7 4.6 0.3
v -2.5 4.6 0.6
v -2.5 4.6 0.3
v -2.5 4.7 0.6
v -2.5 4.7 0.3
v -2.3 4.7 0.6
v -2.3 4.7 0.3
v -2.3 4.8 0.6
v -2.3 4.8 0.3
v -2.1 4.8 0.6
v -2.1 4.8 0.3
v -2.1 4.9 0.6
v -2.1 4.9 0.3
v -1.4 4.1 0.6
v -1.4 4.1 0.3
v -1.4 4.3 0.6
v -1.4 4.3 0.3
v -1.3 4 0.6
v -1.3 4 0.3
v -1.3 4.1 0.6
v -1.3 4.1 0.3
v -1.3 4.3 0.6
v -1.3 4.3 0.3
v -1.3 4.4 0.6
v -1.3 4.4 0.3
v -1.2 4.4 0.6
v -1.2 4.4 0.3
v -1.2 4.6 0.6
v -1.2 4.6 0.3
v -1.1 4.7 0.6
v -1.1 4.7 0.3
v -1.1 4.9 0.6
v -1.1 4.9 0.3
v -1 4.9 0.6
v -1 4.9 0.3
v -1 5 0.6
v -1 5 0.3
v -1 5.3 0.6
v -1 5.3 0.3
v -1 5.5 0.6
v -1 5.5 0.3
v -0.9 4.8 0.6
v -0.9 4.8 0.3
v -0.9 4.9 0.6
v -0.9 4.9 0.3
v -0.9 5.5 0.6
v -0.9 5.5 0.3
v -0.9 5.6 0.6
v -0.9 5.6 0.3
v 0.1 5.7 0.6
v 0.1 5.7 0.5
v 0.1 5.7 0.4
v 0.1 5.7 0.3
v 0.1 5.8 0.6
v 0.1 5.8 0.5
v 0.1 5.8 0.4
v 0.1 5.8 0.3
v 0.200001 3.4 0.6
v 0.200001 3.4 0.3
v 0.200001 4.6 0.6
v 0.200001 4.6 0.3
v 0.200001 5.6 0.6
v 0.200001 5.6 0.3
v 0.200001 5.7 0.6
v 0.200001 5.7 0.3
v 0.3 4.6 0.6
v 0.3 4.6 0.3
v 0.3 4.7 0.6
v 0.3 4.7 0.3
v 0.3 5.4 0.6
v 0.3 5.4 0.3
v 0.3 5.6 0.6
v 0.3 5.6 0.3
v 0.4 4.7 0.6
v 0.4 4.7 0.3
v 0.4 4.8 0.6
v 0.4 4.8 0.3
v 0.7 4.8 0.6
v 0.7 4.8 0.3
v 0.7 4.9 0.6
v 0.7 4.9 0.3
v 1.3 5.3 0.6
v 1.3 5.3 0.3
v 1.3 5.4 0.6
v 1.3 5.4 0.3
v 1.4 4.9 0.6
v 1.4 4.9 0.3
v 1.4 5 0.6
v 1.4 5 0.3
v 2.4 5 0.6
v 2.4 5 0.3
v 2.4 5.1 0.5
v 2.4 5.1 0.4
v 2.4 5.3 0.6
v 2.4 5.3 0.5
v 2.4 5.3 0.4
v 2.4 5.3 0.3
v 2.5 5.2 0.5
v 2.5 5.2 0.4
v 2.5 5.3 0.5
v 2.5 5.3 0.4
v 2.6 5.3 0.5
v 2.6 5.3 0.4
v 2.6 5.4 0.5
v 2.6 5.4 0.4
v 2.7 5.4 0.5
v 2.7 5.4 0.4
v 2.7 5.5 0.5
v 2.7 5.5 0.4
v 2.9 5.2 0.5
v 2.9 5.2 0.4
v 2.9 5.7 0.5
v 2.9 5.7 0.4
v 3.4 5.1 0.5
v 3.4 5.1 0.4
v 3.4 5.2 0.5
v 3.4 5.2 0.4
v -3.3 4.4 0.6
v -3.3 5.3 0.6
v -2.9 4.4 0.6
v -2.9 4.5 0.6
v -2.7 4.5 0.6
v -2.7 4.6 0.6
v -2.5 4.6 0.6
v -2.5 4.7 0.6
v -2.3 4.7 0.6
v -2.3 4.8 0.6
v -2.1 4.8 0.6
v -2.1 4.9 0.6
v -1.9 4.1 0.6
v -1.9 4.4 0.6
v -1.8 4 0.6
v -1.8 4.1 0.6
v -1.8 4.4 0.6
v -1.8 4.6 0.6
v -1.7 4.6 0.6
v -1.7 4.8 0.6
v -1.6 4.8 0.6
v -1.6 4.9 0.6
v -1.4 4.1 0.6
v -1.4 4.3 0.6
v -1.4 5.3 0.6
v -1.4 5.4 0.6
v -1.3 4 0.6
v -1.3 4.1 0.6
v -1.3 4.3 0.6
v -1.3 4.4 0.6
v -1.3 5.4 0.6
v -1.3 5.6 0.6
v -1.2 4.4 0.6
v -1.2 4.6 0.6
v -1.2 5.6 0.6
v -1.2 5.7 0.6
v -1.1 4.7 0.6
v -1.1 4.9 0.6
v -1.1 5 0.6
v -1.1 5.7 0.6
v -1.1 5.8 0.6
v -1 4.8 0.6
v -1 4.9 0.6
v -1 5 0.6
v -1 5.3 0.6
v -1 5.5 0.6
v -0.9 4.8 0.6
v -0.9 4.9 0.6
v -0.9 5.5 0.6
v -0.9 5.6 0.6
v -0.6 4.7 0.6
v -0.6 5 0.6
v -0.5 3.5 0.6
v -0.5 4.3 0.6
v -0.5 4.6 0.6
v -0.4 3.4 0.6
v -0.4 3.5 0.6
v -0.4 4.3 0.6
v -0.299999 3.4 0.6
v -0.299999 4.3 0.6
v -0.299999 4.4 0.6
v -0.2 3.4 0.6
v -0.2 4.4 0.6
v -0.0999997 3.4 0.6
v -0.0999997 4.4 0.6
v -0.0999997 4.5 0.6
v 4.76837e-007 3.4 0.6
v 4.76837e-007 4.5 0.6
v 0.1 3.4 0.6
v 0.1 4.5 0.6
v 0.1 4.6 0.6
v 0.1 5.3 0.6
v 0.1 5.4 0.6
v 0.1 5.7 0.6
v 0.1 5.8 0.6
v 0.200001 3.4 0.6
v 0.200001 4.6 0.6
v 0.200001 5.4 0.6
v 0.200001 5.6 0.6
v 0.200001 5.7 0.6
v 0.3 4.6 0.6
v 0.3 4.7 0.6
v 0.3 5.4 0.6
v 0.3 5.6 0.6
v 0.4 4.7 0.6
v 0.4 4.8 0.6
v 0.7 4.8 0.6
v 0.7 4.9 0.6
v 1.3 5.3 0.6
v 1.3 5.4 0.6
v 1.4 4.9 0.6
v 1.4 5 0.6
v 2.4 5 0.6
v 2.4 5.3 0.6
v 2.4 5.1 0.5
v 2.4 5.3 0.5
v 2.4 5.4 0.5
v 2.5 5.2 0.5
v 2.5 5.3 0.5
v 2.5 5.4 0.5
v 2.5 5.5 0.5
v 2.6 5.3 0.5
v 2.6 5.4 0.5
v 2.6 5.5 0.5
v 2.6 5.6 0.5
v 2.7 5.4 0.5
v 2.7 5.5 0.5
v 2.7 5.6 0.5
v 2.7 5.7 0.5
v 2.8 5.2 0.5
v 2.8 5.5 0.5
v 2.9 5.2 0.5
v 2.9 5.7 0.5
v 3.4 5.1 0.5
v 3.4 5.2 0.5
v -1.1 5.7 0.4
v -1.1 5.8 0.4
v 0.1 5.7 0.4
v 0.1 5.8 0.4
v -1.1 5.7 0.5
v -1.1 5.8 0.5
v 0.1 5.7 0.5
v 0.1 5.8 0.5
v 2.4 5.1 0.4
v 2.4 5.3 0.4
v 2.4 5.4 0.4
v 2.5 5.2 0.4
v 2.5 5.3 0.4
v 2.5 5.4 0.4
v 2.5 5.5 0.4
v 2.6 5.3 0.4
v 2.6 5.4 0.4
v 2.6 5.5 0.4
v 2.6 5.6 0.4
v 2.7 5.4 0.4
v 2.7 5.5 0.4
v 2.7 5.6 0.4
v 2.7 5.7 0.4
v 2.8 5.2 0.4
v 2.8 5.5 0.4
v 2.9 5.2 0.4
v 2.9 5.7 0.4
v 3.4 5.1 0.4
v 3.4 5.2 0.4
v -3.3 4.4 0.3
v -3.3 5.3 0.3
v -2.9 4.4 0.3
v -2.9 4.5 0.3
v -2.7 4.5 0.3
v -2.7 4.6 0.3
v -2.5 4.6 0.3
v -2.5 4.7 0.3
v -2.3 4.7 0.3
v -2.3 4.8 0.3
v -2.1 4.8 0.3
v -2.1 4.9 0.3
v -1.9 4.1 0.3
v -1.9 4.4 0.3
v -1.8 4 0.3
v -1.8 4.1 0.3
v -1.8 4.4 0.3
v -1.8 4.6 0.3
v -1.7 4.6 0.3
v -1.7 4.8 0.3
v -1.6 4.8 0.3
v -1.6 4.9 0.3
v -1.4 4.1 0.3
v -1.4 4.3 0.3
v -1.4 5.3 0.3
v -1.4 5.4 0.3
v -1.3 4 0.3
v -1.3 4.1 0.3
v -1.3 4.3 0.3
v -1.3 4.4 0.3
v -1.3 5.4 0.3
v -1.3 5.6 0.3
v -1.2 4.4 0.3
v -1.2 4.6 0.3
v -1.2 5.6 0.3
v -1.2 5.7 0.3
v -1.1 4.7 0.3
v -1.1 4.9 0.3
v -1.1 5 0.3
v -1.1 5.7 0.3
v -1.1 5.8 0.3
v -1 4.8 0.3
v -1 4.9 0.3
v -1 5 0.3
v -1 5.3 0.3
v -1 5.5 0.3
v -0.9 4.8 0.3
v -0.9 4.9 0.3
v -0.9 5.5 0.3
v -0.9 5.6 0.3
v -0.6 4.7 0.3
v -0.6 5 0.3
v -0.5 3.5 0.3
v -0.5 4.3 0.3
v -0.5 4.6 0.3
v -0.4 3.4 0.3
v -0.4 3.5 0.3
v -0.4 4.3 0.3
v -0.299999 3.4 0.3
v -0.299999 4.3 0.3
v -0.299999 4.4 0.3
v -0.2 3.4 0.3
v -0.2 4.4 0.3
v -0.0999997 3.4 0.3
v -0.0999997 4.4 0.3
v -0.0999997 4.5 0.3
v 4.76837e-007 3.4 0.3
v 4.76837e-007 4.5 0.3
v 0.1 3.4 0.3
v 0.1 4.5 0.3
v 0.1 4.6 0.3
v 0.1 5.3 0.3
v 0.1 5.4 0.3
v 0.1 5.7 0.3
v 0.1 5.8 0.3
v 0.200001 3.4 0.3
v 0.200001 4.6 0.3
v 0.200001 5.4 0.3
v 0.200001 5.6 0.3
v 0.200001 5.7 0.3
v 0.3 4.6 0.3
v 0.3 4.7 0.3
v 0.3 5.4 0.3
v 0.3 5.6 0.3
v 0.4 4.7 0.3
v 0.4 4.8 0.3
v 0.7 4.8 0.3
v 0.7 4.9 0.3
v 1.3 5.3 0.3
v 1.3 5.4 0.3
v 1.4 4.9 0.3
v 1.4 5 0.3
v 2.4 5 0.3
v 2.4 5.3 0.3
v -0.4 3.4 0.6
v -0.299999 3.4 0.6
v -0.2 3.4 0.6
v -0.0999997 3.4 0.6
v 4.76837e-007 3.4 0.6
v 0.1 3.4 0.6
v 0.200001 3.4 0.6
v -0.299999 3.4 0.5
v -0.2 3.4 0.5
v -0.0999997 3.4 0.5
v 4.76837e-007 3.4 0.5
v -0.299999 3.4 0.4
v -0.2 3.4 0.4
v -0.0999997 3.4 0.4
v 4.76837e-007 3.4 0.4
v -0.4 3.4 0.3
v -0.299999 3.4 0.3
v -0.2 3.4 0.3
v -0.0999997 3.4 0.3
v 4.76837e-007 3.4 0.3
v 0.1 3.4 0.3
v 0.200001 3.4 0.3
v -0.5 3.5 0.6
v -0.4 3.5 0.6
v -0.5 3.5 0.3
v -0.4 3.5 0.3
v -1.8 4 0.6
v -1.3 4 0.6
v -1.8 4 0.3
v -1.3 4 0.3
v -1.9 4.1 0.6
v -1.8 4.1 0.6
v -1.9 4.1 0.3
v -1.8 4.1 0.3
v -1.4 4.3 0.6
v -1.3 4.3 0.6
v -1.4 4.3 0.3
v -1.3 4.3 0.3
v -3.3 4.4 0.6
v -2.9 4.4 0.6
v -1.3 4.4 0.6
v -1.2 4.4 0.6
v -3.3 4.4 0.3
v -2.9 4.4 0.3
v -1.3 4.4 0.3
v -1.2 4.4 0.3
v -2.9 4.5 0.6
v -2.7 4.5 0.6
v -2.9 4.5 0.3
v -2.7 4.5 0.3
v -2.7 4.6 0.6
v -2.5 4.6 0.6
v -1.2 4.6 0.6
v -0.5 4.6 0.6
v 0.200001 4.6 0.6
v 0.3 4.6 0.6
v -2.7 4.6 0.3
v -2.5 4.6 0.3
v -1.2 4.6 0.3
v -0.5 4.6 0.3
v 0.200001 4.6 0.3
v 0.3 4.6 0.3
v -2.5 4.7 0.6
v -2.3 4.7 0.6
v 0.3 4.7 0.6
v 0.4 4.7 0.6
v -2.5 4.7 0.3
v -2.3 4.7 0.3
v 0.3 4.7 0.3
v 0.4 4.7 0.3
v -2.3 4.8 0.6
v -2.1 4.8 0.6
v -1 4.8 0.6
v -0.9 4.8 0.6
v 0.4 4.8 0.6
v 0.7 4.8 0.6
v -2.3 4.8 0.3
v -2.1 4.8 0.3
v -1 4.8 0.3
v -0.9 4.8 0.3
v 0.4 4.8 0.3
v 0.7 4.8 0.3
v -2.1 4.9 0.6
v -1.6 4.9 0.6
v -1.1 4.9 0.6
v -1 4.9 0.6
v 0.7 4.9 0.6
v 1.4 4.9 0.6
v -2.1 4.9 0.3
v -1.6 4.9 0.3
v -1.1 4.9 0.3
v -1 4.9 0.3
v 0.7 4.9 0.3
v 1.4 4.9 0.3
v -1 5 0.6
v -0.6 5 0.6
v 1.4 5 0.6
v 2.4 5 0.6
v -1 5 0.3
v -0.6 5 0.3
v 1.4 5 0.3
v 2.4 5 0.3
v 2.4 5.1 0.5
v 3.4 5.1 0.5
v 2.4 5.1 0.4
v 3.4 5.1 0.4
v 2.5 5.3 0.5
v 2.6 5.3 0.5
v 2.5 5.3 0.4
v 2.6 5.3 0.4
v 2.6 5.4 0.5
v 2.7 5.4 0.5
v 2.6 5.4 0.4
v 2.7 5.4 0.4
v -1 5.5 0.6
v -0.9 5.5 0.6
v 2.7 5.5 0.5
v 2.8 5.5 0.5
v 2.7 5.5 0.4
v 2.8 5.5 0.4
v -1 5.5 0.3
v -0.9 5.5 0.3
v -0.9 5.6 0.6
v 0.200001 5.6 0.6
v -0.9 5.6 0.3
v 0.200001 5.6 0.3
v -1.4 4.1 0.6
v -1.3 4.1 0.6
v -1.4 4.1 0.3
v -1.3 4.1 0.3
v -1.9 4.4 0.6
v -1.8 4.4 0.6
v -1.9 4.4 0.3
v -1.8 4.4 0.3
v -1.8 4.6 0.6
v -1.7 4.6 0.6
v -1.8 4.6 0.3
v -1.7 4.6 0.3
v -1.1 4.7 0.6
v -0.6 4.7 0.6
v -1.1 4.7 0.3
v -0.6 4.7 0.3
v -1.7 4.8 0.6
v -1.6 4.8 0.6
v -1.7 4.8 0.3
v -1.6 4.8 0.3
v -1 4.9 0.6
v -0.9 4.9 0.6
v -1 4.9 0.3
v -0.9 4.9 0.3
v 2.5 5.2 0.5
v 2.8 5.2 0.5
v 2.9 5.2 0.5
v 3.4 5.2 0.5
v 2.5 5.2 0.4
v 2.8 5.2 0.4
v 2.9 5.2 0.4
v 3.4 5.2 0.4
v -3.3 5.3 0.6
v -1.4 5.3 0.6
v -1 5.3 0.6
v 0.1 5.3 0.6
v 1.3 5.3 0.6
v 2.4 5.3 0.6
v 2.4 5.3 0.5
v 2.4 5.3 0.4
v -3.3 5.3 0.3
v -1.4 5.3 0.3
v -1 5.3 0.3
v 0.1 5.3 0.3
v 1.3 5.3 0.3
v 2.4 5.3 0.3
v -1.4 5.4 0.6
v -1.3 5.4 0.6
v 0.1 5.4 0.6
v 0.200001 5.4 0.6
v 0.3 5.4 0.6
v 1.3 5.4 0.6
v 2.4 5.4 0.5
v 2.5 5.4 0.5
v 2.4 5.4 0.4
v 2.5 5.4 0.4
v -1.4 5.4 0.3
v -1.3 5.4 0.3
v 0.1 5.4 0.3
v 0.200001 5.4 0.3
v 0.3 5.4 0.3
v 1.3 5.4 0.3
v 2.5 5.5 0.5
v 2.6 5.5 0.5
v 2.5 5.5 0.4
v 2.6 5.5 0.4
v -1.3 5.6 0.6
v -1.2 5.6 0.6
v 0.200001 5.6 0.6
v 0.3 5.6 0.6
v 2.6 5.6 0.5
v 2.7 5.6 0.5
v 2.6 5.6 0.4
v 2.7 5.6 0.4
v -1.3 5.6 0.3
v -1.2 5.6 0.3
v 0.200001 5.6 0.3
v 0.3 5.6 0.3
v -1.2 5.7 0.6
v -1.1 5.7 0.6
v 0.1 5.7 0.6
v 0.200001 5.7 0.6
v -1.1 5.7 0.5
v 0.1 5.7 0.5
v 2.7 5.7 0.5
v 2.9 5.7 0.5
v -1.1 5.7 0.4
v 0.1 5.7 0.4
v 2.7 5.7 0.4
v 2.9 5.7 0.4
v -1.2 5.7 0.3
v -1.1 5.7 0.3
v 0.1 5.7 0.3
v 0.200001 5.7 0.3
v -1.1 5.8 0.6
v 0.1 5.8 0.6
v -1.1 5.8 0.5
v 0.1 5.8 0.5
v -1.1 5.8 0.4
v 0.1 5.8 0.4
v -1.1 5.8 0.3
v 0.1 5.8 0.3

# faces
f 3/4/1 2/4/1 1/4/1
f 4/4/1 2/4/1 3/4/1
f 7/4/1 6/4/1 5/4/1
f 8/4/1 6/4/1 7/4/1
f 11/4/1 10/4/1 9/4/1
f 12/4/1 10/4/1 11/4/1
f 15/4/1 14/4/1 13/4/1
f 16/4/1 14/4/1 15/4/1
f 19/4/1 18/4/1 17/4/1
f 20/4/1 18/4/1 19/4/1
f 23/4/1 22/4/1 21/4/1
f 24/4/1 22/4/1 23/4/1
f 27/4/1 26/4/1 25/4/1
f 28/4/1 26/4/1 27/4/1
f 31/4/1 30/4/1 29/4/1
f 32/4/1 30/4/1 31/4/1
f 35/4/1 34/4/1 33/4/1
f 36/4/1 34/4/1 35/4/1
f 41/4/1 38/4/1 37/4/1
f 42/4/1 38/4/1 41/4/1
f 43/4/1 40/4/1 39/4/1
f 44/4/1 40/4/1 43/4/1
f 47/3/1 46/3/1 45/3/1
f 48/3/1 46/3/1 47/3/1
f 51/4/1 50/4/1 49/4/1
f 52/4/1 50/4/1 51/4/1
f 55/3/1 54/3/1 53/3/1
f 56/3/1 54/3/1 55/3/1
f 57/4/1 56/4/1 55/4/1
f 58/4/1 56/4/1 57/4/1
f 61/2/1 60/2/1 59/2/1
f 62/2/1 60/2/1 61/2/1
f 65/4/1 64/4/1 63/4/1
f 66/4/1 64/4/1 65/4/1
f 69/4/1 68/4/1 67/4/1
f 70/4/1 68/4/1 69/4/1
f 73/4/1 72/4/1 71/4/1
f 74/4/1 72/4/1 73/4/1
f 77/4/1 76/4/1 75/4/1
f 78/4/1 76/4/1 77/4/1
f 81/4/1 80/4/1 79/4/1
f 82/4/1 80/4/1 81/4/1
f 85/4/1 84/4/1 83/4/1
f 86/4/1 84/4/1 85/4/1
f 89/4/1 88/4/1 87/4/1
f 90/4/1 88/4/1 89/4/1
f 91/4/2 92/4/2 93/4/2
f 93/4/2 92/4/2 94/4/2
f 95/4/2 96/4/2 97/4/2
f 97/4/2 96/4/2 98/4/2
f 99/4/2 100/4/2 101/4/2
f 101/4/2 100/4/2 102/4/2
f 103/4/2 104/4/2 105/4/2
f 105/4/2 104/4/2 106/4/2
f 107/4/2 108/4/2 109/4/2
f 109/4/2 108/4/2 110/4/2
f 111/4/2 112/4/2 113/4/2
f 113/4/2 112/4/2 114/4/2
f 115/4/2 116/4/2 117/4/2
f 117/4/2 116/4/2 118/4/2
f 119/4/2 120/4/2 121/4/2
f 121/4/2 120/4/2 122/4/2
f 123/4/2 124/4/2 125/4/2
f 125/4/2 124/4/2 126/4/2
f 127/4/2 128/4/2 129/4/2
f 129/4/2 128/4/2 130/4/2
f 131/3/2 132/3/2 133/3/2
f 133/3/2 132/3/2 134/3/2
f 135/4/2 136/4/2 137/4/2
f 137/4/2 136/4/2 138/4/2
f 139/3/2 140/3/2 141/3/2
f 141/3/2 140/3/2 142/3/2
f 143/4/2 144/4/2 145/4/2
f 145/4/2 144/4/2 146/4/2
f 147/4/2 148/4/2 151/4/2
f 151/4/2 148/4/2 152/4/2
f 149/4/2 150/4/2 153/4/2
f 153/4/2 150/4/2 154/4/2
f 155/3/2 156/3/2 157/3/2
f 157/3/2 156/3/2 158/3/2
f 159/4/2 160/4/2 161/4/2
f 161/4/2 160/4/2 162/4/2
f 163/4/2 164/4/2 165/4/2
f 165/4/2 164/4/2 166/4/2
f 167/4/2 168/4/2 169/4/2
f 169/4/2 168/4/2 170/4/2
f 171/4/2 172/4/2 173/4/2
f 173/4/2 172/4/2 174/4/2
f 175/4/2 176/4/2 177/4/2
f 177/4/2 176/4/2 178/4/2
f 179/4/2 180/4/2 181/4/2
f 181/4/2 180/4/2 182/4/2
f 183/4/2 184/4/2 185/4/2
f 185/4/2 184/4/2 186/4/2
f 187/4/2 188/4/2 189/4/2
f 189/4/2 188/4/2 190/4/2
f 187/4/2 189/4/2 191/4/2
f 191/4/2 189/4/2 192/4/2
f 190/4/2 188/4/2 193/4/2
f 193/4/2 188/4/2 194/4/2
f 195/4/2 196/4/2 197/4/2
f 197/4/2 196/4/2 198/4/2
f 199/4/2 200/4/2 201/4/2
f 201/4/2 200/4/2 202/4/2
f 203/4/2 204/4/2 205/4/2
f 205/4/2 204/4/2 206/4/2
f 207/4/2 208/4/2 209/4/2
f 209/4/2 208/4/2 210/4/2
f 211/4/2 212/4/2 213/4/2
f 213/4/2 212/4/2 214/4/2
f 217/4/3 216/4/3 215/4/3
f 218/4/3 216/4/3 217/4/3
f 219/4/3 216/4/3 218/4/3
f 220/4/3 216/4/3 219/4/3
f 221/4/3 216/4/3 220/4/3
f 222/4/3 216/4/3 221/4/3
f 223/4/3 216/4/3 222/4/3
f 224/4/3 216/4/3 223/4/3
f 225/4/3 216/4/3 224/4/3
f 226/4/3 216/4/3 225/4/3
f 230/4/3 228/4/3 227/4/3
f 231/4/3 228/4/3 230/4/3
f 233/4/3 230/4/3 229/4/3
f 233/4/3 232/4/3 231/4/3
f 233/4/3 231/4/3 230/4/3
f 235/4/3 234/4/3 233/4/3
f 236/4/3 216/4/3 226/4/3
f 237/4/3 235/4/3 233/4/3
f 237/4/3 236/4/3 235/4/3
f 237/4/3 233/4/3 229/4/3
f 238/4/3 236/4/3 237/4/3
f 239/4/3 216/4/3 236/4/3
f 239/4/3 236/4/3 238/4/3
f 241/4/3 237/4/3 229/4/3
f 242/4/3 237/4/3 241/4/3
f 243/4/3 240/4/3 239/4/3
f 243/4/3 239/4/3 238/4/3
f 244/4/3 240/4/3 243/4/3
f 245/4/3 240/4/3 244/4/3
f 247/4/3 246/4/3 245/4/3
f 247/4/3 245/4/3 244/4/3
f 248/4/3 246/4/3 247/4/3
f 249/4/3 246/4/3 248/4/3
f 251/4/3 250/4/3 249/4/3
f 251/4/3 249/4/3 248/4/3
f 252/4/3 250/4/3 251/4/3
f 253/4/3 250/4/3 252/4/3
f 254/4/3 250/4/3 253/4/3
f 257/3/3 253/3/3 252/3/3
f 258/4/3 255/4/3 254/4/3
f 258/4/3 254/4/3 253/4/3
f 258/3/3 253/3/3 257/3/3
f 259/4/3 255/4/3 258/4/3
f 260/4/3 255/4/3 259/4/3
f 261/3/3 257/3/3 256/3/3
f 262/3/3 257/3/3 261/3/3
f 263/4/3 255/4/3 260/4/3
f 264/4/3 255/4/3 263/4/3
f 265/4/3 251/4/3 248/4/3
f 266/4/3 259/4/3 258/4/3
f 269/4/3 265/4/3 248/4/3
f 269/4/3 266/4/3 265/4/3
f 271/3/3 268/3/3 267/3/3
f 272/4/3 269/4/3 268/4/3
f 272/3/3 268/3/3 271/3/3
f 273/2/3 271/2/3 270/2/3
f 273/2/3 272/2/3 271/2/3
f 274/4/3 269/4/3 272/4/3
f 274/2/3 272/2/3 273/2/3
f 275/4/3 269/4/3 274/4/3
f 276/3/3 274/3/3 273/3/3
f 276/3/3 275/3/3 274/3/3
f 277/4/3 269/4/3 275/4/3
f 277/3/3 275/3/3 276/3/3
f 278/2/3 277/2/3 276/2/3
f 279/4/3 269/4/3 277/4/3
f 279/2/3 277/2/3 278/2/3
f 280/4/3 269/4/3 279/4/3
f 281/3/3 279/3/3 278/3/3
f 281/3/3 280/3/3 279/3/3
f 282/4/3 269/4/3 280/4/3
f 282/3/3 280/3/3 281/3/3
f 283/2/3 282/2/3 281/2/3
f 284/4/3 269/4/3 282/4/3
f 284/2/3 282/2/3 283/2/3
f 285/4/3 266/4/3 269/4/3
f 285/4/3 269/4/3 284/4/3
f 286/4/3 259/4/3 266/4/3
f 286/4/3 266/4/3 285/4/3
f 288/4/3 255/4/3 264/4/3
f 289/4/3 255/4/3 288/4/3
f 290/3/3 285/3/3 284/3/3
f 290/3/3 284/3/3 283/3/3
f 291/4/3 287/4/3 286/4/3
f 291/3/3 285/3/3 290/3/3
f 291/4/3 286/4/3 285/4/3
f 292/4/3 287/4/3 291/4/3
f 293/4/3 288/4/3 264/4/3
f 294/4/3 288/4/3 293/4/3
f 295/4/3 292/4/3 291/4/3
f 295/4/3 293/4/3 292/4/3
f 296/4/3 293/4/3 295/4/3
f 297/4/3 293/4/3 296/4/3
f 298/4/3 293/4/3 297/4/3
f 299/4/3 297/4/3 296/4/3
f 300/4/3 297/4/3 299/4/3
f 301/4/3 297/4/3 300/4/3
f 302/4/3 297/4/3 301/4/3
f 303/4/3 297/4/3 302/4/3
f 304/4/3 297/4/3 303/4/3
f 305/4/3 303/4/3 302/4/3
f 306/4/3 303/4/3 305/4/3
f 307/4/3 303/4/3 306/4/3
f 308/4/3 303/4/3 307/4/3
f 312/4/3 310/4/3 309/4/3
f 312/4/3 311/4/3 310/4/3
f 313/4/3 311/4/3 312/4/3
f 314/4/3 311/4/3 313/4/3
f 316/4/3 315/4/3 314/4/3
f 316/4/3 314/4/3 313/4/3
f 317/4/3 315/4/3 316/4/3
f 318/4/3 315/4/3 317/4/3
f 320/4/3 319/4/3 318/4/3
f 320/4/3 318/4/3 317/4/3
f 321/4/3 319/4/3 320/4/3
f 322/4/3 319/4/3 321/4/3
f 324/4/3 312/4/3 309/4/3
f 325/4/3 323/4/3 322/4/3
f 325/4/3 322/4/3 321/4/3
f 326/4/3 324/4/3 309/4/3
f 326/4/3 325/4/3 324/4/3
f 327/4/3 323/4/3 325/4/3
f 327/4/3 325/4/3 326/4/3
f 328/4/3 326/4/3 309/4/3
f 329/4/3 326/4/3 328/4/3
f 332/4/3 331/4/3 330/4/3
f 333/4/3 331/4/3 332/4/3
f 334/4/4 335/4/4 336/4/4
f 336/4/4 335/4/4 337/4/4
f 338/4/4 339/4/4 341/4/4
f 339/4/4 340/4/4 341/4/4
f 341/4/4 340/4/4 342/4/4
f 342/4/4 340/4/4 343/4/4
f 343/4/4 344/4/4 345/4/4
f 342/4/4 343/4/4 345/4/4
f 345/4/4 344/4/4 346/4/4
f 346/4/4 344/4/4 347/4/4
f 347/4/4 348/4/4 349/4/4
f 346/4/4 347/4/4 349/4/4
f 349/4/4 348/4/4 350/4/4
f 350/4/4 348/4/4 351/4/4
f 338/4/4 341/4/4 353/4/4
f 351/4/4 352/4/4 354/4/4
f 350/4/4 351/4/4 354/4/4
f 338/4/4 353/4/4 355/4/4
f 353/4/4 354/4/4 355/4/4
f 354/4/4 352/4/4 356/4/4
f 355/4/4 354/4/4 356/4/4
f 338/4/4 355/4/4 357/4/4
f 357/4/4 355/4/4 358/4/4
f 359/4/4 360/4/4 361/4/4
f 361/4/4 360/4/4 362/4/4
f 362/4/4 360/4/4 363/4/4
f 363/4/4 360/4/4 364/4/4
f 364/4/4 360/4/4 365/4/4
f 365/4/4 360/4/4 366/4/4
f 366/4/4 360/4/4 367/4/4
f 367/4/4 360/4/4 368/4/4
f 368/4/4 360/4/4 369/4/4
f 369/4/4 360/4/4 370/4/4
f 371/4/4 372/4/4 374/4/4
f 374/4/4 372/4/4 375/4/4
f 373/4/4 374/4/4 377/4/4
f 375/4/4 376/4/4 377/4/4
f 374/4/4 375/4/4 377/4/4
f 377/4/4 378/4/4 379/4/4
f 370/4/4 360/4/4 380/4/4
f 377/4/4 379/4/4 381/4/4
f 379/4/4 380/4/4 381/4/4
f 373/4/4 377/4/4 381/4/4
f 381/4/4 380/4/4 382/4/4
f 380/4/4 360/4/4 383/4/4
f 382/4/4 380/4/4 383/4/4
f 373/4/4 381/4/4 385/4/4
f 385/4/4 381/4/4 386/4/4
f 383/4/4 384/4/4 387/4/4
f 382/4/4 383/4/4 387/4/4
f 387/4/4 384/4/4 388/4/4
f 388/4/4 384/4/4 389/4/4
f 389/4/4 390/4/4 391/4/4
f 388/4/4 389/4/4 391/4/4
f 391/4/4 390/4/4 392/4/4
f 392/4/4 390/4/4 393/4/4
f 393/4/4 394/4/4 395/4/4
f 392/4/4 393/4/4 395/4/4
f 395/4/4 394/4/4 396/4/4
f 396/4/4 394/4/4 397/4/4
f 397/4/4 394/4/4 398/4/4
f 396/3/4 397/3/4 401/3/4
f 398/4/4 399/4/4 402/4/4
f 397/4/4 398/4/4 402/4/4
f 401/3/4 397/3/4 402/3/4
f 402/4/4 399/4/4 403/4/4
f 403/4/4 399/4/4 404/4/4
f 400/3/4 401/3/4 405/3/4
f 405/3/4 401/3/4 406/3/4
f 404/4/4 399/4/4 407/4/4
f 407/4/4 399/4/4 408/4/4
f 392/4/4 395/4/4 409/4/4
f 402/4/4 403/4/4 410/4/4
f 392/4/4 409/4/4 413/4/4
f 409/4/4 410/4/4 413/4/4
f 411/3/4 412/3/4 415/3/4
f 412/4/4 413/4/4 416/4/4
f 415/3/4 412/3/4 416/3/4
f 414/2/4 415/2/4 417/2/4
f 415/2/4 416/2/4 417/2/4
f 416/4/4 413/4/4 418/4/4
f 417/2/4 416/2/4 418/2/4
f 418/4/4 413/4/4 419/4/4
f 417/3/4 418/3/4 420/3/4
f 418/3/4 419/3/4 420/3/4
f 419/4/4 413/4/4 421/4/4
f 420/3/4 419/3/4 421/3/4
f 420/2/4 421/2/4 422/2/4
f 421/4/4 413/4/4 423/4/4
f 422/2/4 421/2/4 423/2/4
f 423/4/4 413/4/4 424/4/4
f 422/3/4 423/3/4 425/3/4
f 423/3/4 424/3/4 425/3/4
f 424/4/4 413/4/4 426/4/4
f 425/3/4 424/3/4 426/3/4
f 425/2/4 426/2/4 427/2/4
f 426/4/4 413/4/4 428/4/4
f 427/2/4 426/2/4 428/2/4
f 413/4/4 410/4/4 429/4/4
f 428/4/4 413/4/4 429/4/4
f 410/4/4 403/4/4 430/4/4
f 429/4/4 410/4/4 430/4/4
f 408/4/4 399/4/4 432/4/4
f 432/4/4 399/4/4 433/4/4
f 428/3/4 429/3/4 434/3/4
f 427/3/4 428/3/4 434/3/4
f 430/4/4 431/4/4 435/4/4
f 434/3/4 429/3/4 435/3/4
f 429/4/4 430/4/4 435/4/4
f 435/4/4 431/4/4 436/4/4
f 408/4/4 432/4/4 437/4/4
f 437/4/4 432/4/4 438/4/4
f 435/4/4 436/4/4 439/4/4
f 436/4/4 437/4/4 439/4/4
f 439/4/4 437/4/4 440/4/4
f 440/4/4 437/4/4 441/4/4
f 441/4/4 437/4/4 442/4/4
f 440/4/4 441/4/4 443/4/4
f 443/4/4 441/4/4 444/4/4
f 444/4/4 441/4/4 445/4/4
f 445/4/4 441/4/4 446/4/4
f 446/4/4 441/4/4 447/4/4
f 447/4/4 441/4/4 448/4/4
f 446/4/4 447/4/4 449/4/4
f 449/4/4 447/4/4 450/4/4
f 450/4/4 447/4/4 451/4/4
f 451/4/4 447/4/4 452/4/4
f 460/2/5 454/2/5 453/2/5
f 460/3/5 455/3/5 454/3/5
f 461/2/5 456/2/5 455/2/5
f 461/3/5 455/3/5 460/3/5
f 462/3/5 457/3/5 456/3/5
f 462/2/5 456/2/5 461/2/5
f 463/2/5 458/2/5 457/2/5
f 463/3/5 457/3/5 462/3/5
f 464/2/5 462/2/5 461/2/5
f 464/2/5 460/2/5 453/2/5
f 464/2/5 463/2/5 462/2/5
f 464/2/5 461/2/5 460/2/5
f 465/2/5 463/2/5 464/2/5
f 466/2/5 463/2/5 465/2/5
f 467/2/5 458/2/5 463/2/5
f 467/2/5 463/2/5 466/2/5
f 468/2/5 464/2/5 453/2/5
f 469/3/5 465/3/5 464/3/5
f 469/2/5 464/2/5 468/2/5
f 470/2/5 466/2/5 465/2/5
f 470/3/5 465/3/5 469/3/5
f 471/3/5 467/3/5 466/3/5
f 471/2/5 466/2/5 470/2/5
f 472/2/5 458/2/5 467/2/5
f 472/3/5 467/3/5 471/3/5
f 473/3/5 459/3/5 458/3/5
f 473/2/5 458/2/5 472/2/5
f 474/3/5 459/3/5 473/3/5
f 477/3/5 476/3/5 475/3/5
f 478/3/5 476/3/5 477/3/5
f 481/4/5 480/4/5 479/4/5
f 482/4/5 480/4/5 481/4/5
f 485/4/5 484/4/5 483/4/5
f 486/4/5 484/4/5 485/4/5
f 489/4/5 488/4/5 487/4/5
f 490/4/5 488/4/5 489/4/5
f 495/4/5 492/4/5 491/4/5
f 496/4/5 492/4/5 495/4/5
f 497/4/5 494/4/5 493/4/5
f 498/4/5 494/4/5 497/4/5
f 501/4/5 500/4/5 499/4/5
f 502/4/5 500/4/5 501/4/5
f 509/4/5 504/4/5 503/4/5
f 510/4/5 504/4/5 509/4/5
f 511/4/5 506/4/5 505/4/5
f 512/4/5 506/4/5 511/4/5
f 513/4/5 508/4/5 507/4/5
f 514/4/5 508/4/5 513/4/5
f 519/4/5 516/4/5 515/4/5
f 520/4/5 516/4/5 519/4/5
f 521/4/5 518/4/5 517/4/5
f 522/4/5 518/4/5 521/4/5
f 529/4/5 524/4/5 523/4/5
f 530/4/5 524/4/5 529/4/5
f 531/3/5 526/3/5 525/3/5
f 532/3/5 526/3/5 531/3/5
f 533/4/5 528/4/5 527/4/5
f 534/4/5 528/4/5 533/4/5
f 541/4/5 536/4/5 535/4/5
f 542/4/5 536/4/5 541/4/5
f 543/3/5 538/3/5 537/3/5
f 544/3/5 538/3/5 543/3/5
f 545/4/5 540/4/5 539/4/5
f 546/4/5 540/4/5 545/4/5
f 551/4/5 548/4/5 547/4/5
f 552/4/5 548/4/5 551/4/5
f 553/4/5 550/4/5 549/4/5
f 554/4/5 550/4/5 553/4/5
f 557/4/5 556/4/5 555/4/5
f 558/4/5 556/4/5 557/4/5
f 561/4/5 560/4/5 559/4/5
f 562/4/5 560/4/5 561/4/5
f 565/4/5 564/4/5 563/4/5
f 566/4/5 564/4/5 565/4/5
f 571/4/5 570/4/5 569/4/5
f 572/4/5 570/4/5 571/4/5
f 573/4/5 568/4/5 567/4/5
f 574/4/5 568/4/5 573/4/5
f 577/4/5 576/4/5 575/4/5
f 578/4/5 576/4/5 577/4/5
f 579/4/6 580/4/6 581/4/6
f 581/4/6 580/4/6 582/4/6
f 583/4/6 584/4/6 585/4/6
f 585/4/6 584/4/6 586/4/6
f 587/4/6 588/4/6 589/4/6
f 589/4/6 588/4/6 590/4/6
f 591/4/6 592/4/6 593/4/6
f 593/4/6 592/4/6 594/4/6
f 595/4/6 596/4/6 597/4/6
f 597/4/6 596/4/6 598/4/6
f 599/3/6 600/3/6 601/3/6
f 601/3/6 600/3/6 602/3/6
f 603/4/6 604/4/6 607/4/6
f 607/4/6 604/4/6 608/4/6
f 605/4/6 606/4/6 609/4/6
f 609/4/6 606/4/6 610/4/6
f 615/4/6 616/4/6 617/4/6
f 615/4/6 617/4/6 618/4/6
f 611/4/6 612/4/6 619/4/6
f 619/4/6 612/4/6 620/4/6
f 613/4/6 614/4/6 621/4/6
f 621/4/6 614/4/6 622/4/6
f 615/4/6 618/4/6 623/4/6
f 623/4/6 618/4/6 624/4/6
f 631/4/6 632/4/6 633/4/6
f 633/4/6 632/4/6 634/4/6
f 625/4/6 626/4/6 635/4/6
f 635/4/6 626/4/6 636/4/6
f 627/4/6 628/4/6 637/4/6
f 637/4/6 628/4/6 638/4/6
f 629/4/6 630/4/6 639/4/6
f 639/4/6 630/4/6 640/4/6
f 641/4/6 642/4/6 643/4/6
f 643/4/6 642/4/6 644/4/6
f 649/4/6 650/4/6 651/4/6
f 651/4/6 650/4/6 652/4/6
f 645/4/6 646/4/6 653/4/6
f 653/4/6 646/4/6 654/4/6
f 647/4/6 648/4/6 655/4/6
f 655/4/6 648/4/6 656/4/6
f 657/4/6 658/4/6 661/4/6
f 659/4/6 660/4/6 662/4/6
f 657/4/6 661/4/6 665/4/6
f 661/4/6 662/4/6 665/4/6
f 662/4/6 660/4/6 666/4/6
f 665/4/6 662/4/6 666/4/6
f 663/4/6 664/4/6 667/4/6
f 667/4/6 664/4/6 668/4/6
f 657/4/6 665/4/6 669/4/6
f 669/4/6 665/4/6 670/4/6
f 666/4/6 660/4/6 671/4/6
f 671/4/6 660/4/6 672/4/6
f 673/4/6 674/4/6 675/4/6
f 675/4/6 674/4/6 676/4/6
f 677/4/6 678/4/6 679/4/6
f 679/4/6 678/4/6 680/4/6
