# MagicaVoxel @ Ephtracy

# group
o 

# material
mtllib radio.mtl
usemtl palette

# normals
vn -1 0 0
vn 1 0 0
vn 0 0 1
vn 0 0 -1
vn 0 -1 0
vn 0 1 0

# texcoords
vt 0.146484 0.5
vt 0.974609 0.5
vt 0.982422 0.5
vt 0.986328 0.5
vt 0.990234 0.5
vt 0.994141 0.5

# verts
v -0.5 0 -0.2
v -0.5 0 -0.5
v -0.5 0.6 -0.2
v -0.5 0.6 -0.3
v -0.5 0.6 -0.4
v -0.5 0.6 -0.5
v -0.5 1.4 -0.3
v -0.5 1.4 -0.4
v -0.3 0.8 -0.3
v -0.3 0.8 -0.4
v -0.3 0.9 -0.3
v -0.3 0.9 -0.4
v 0.7 0.6 -0.3
v 0.7 0.6 -0.4
v 0.7 0.8 -0.3
v 0.7 0.8 -0.4
v -0.4 0.8 -0.3
v -0.4 0.8 -0.4
v -0.4 1.4 -0.3
v -0.4 1.4 -0.4
v -0.3 0.6 -0.3
v -0.3 0.6 -0.4
v -0.3 0.8 -0.3
v -0.3 0.8 -0.4
v 0.7 0.8 -0.3
v 0.7 0.8 -0.4
v 0.7 0.9 -0.3
v 0.7 0.9 -0.4
v 0.8 0.6 -0.3
v 0.8 0.6 -0.4
v 0.8 0.8 -0.3
v 0.8 0.8 -0.4
v 0.9 0 -0.2
v 0.9 0 -0.5
v 0.9 0.6 -0.2
v 0.9 0.6 -0.5
v -0.5 0 -0.2
v -0.5 0.6 -0.2
v -0.4 0.2 -0.2
v -0.4 0.4 -0.2
v -0.3 0.1 -0.2
v -0.3 0.2 -0.2
v -0.3 0.4 -0.2
v -0.3 0.5 -0.2
v -0.1 0.1 -0.2
v -0.1 0.2 -0.2
v -0.1 0.4 -0.2
v -0.1 0.5 -0.2
v 0 0.2 -0.2
v 0 0.4 -0.2
v 0.1 0.2 -0.2
v 0.1 0.4 -0.2
v 0.1 0.5 -0.2
v 0.3 0.2 -0.2
v 0.3 0.4 -0.2
v 0.3 0.5 -0.2
v 0.4 0.2 -0.2
v 0.4 0.4 -0.2
v 0.5 0.1 -0.2
v 0.5 0.2 -0.2
v 0.5 0.4 -0.2
v 0.5 0.5 -0.2
v 0.7 0.1 -0.2
v 0.7 0.2 -0.2
v 0.7 0.4 -0.2
v 0.7 0.5 -0.2
v 0.8 0.2 -0.2
v 0.8 0.4 -0.2
v 0.9 0 -0.2
v 0.9 0.6 -0.2
v -0.5 0.6 -0.3
v -0.5 1.4 -0.3
v -0.4 0.6 -0.3
v -0.4 0.8 -0.3
v -0.4 1.4 -0.3
v -0.3 0.6 -0.3
v -0.3 0.8 -0.3
v -0.3 0.9 -0.3
v 0.7 0.6 -0.3
v 0.7 0.8 -0.3
v 0.7 0.9 -0.3
v 0.8 0.6 -0.3
v 0.8 0.8 -0.3
v -0.5 0.6 -0.4
v -0.5 1.4 -0.4
v -0.4 0.6 -0.4
v -0.4 0.8 -0.4
v -0.4 1.4 -0.4
v -0.3 0.6 -0.4
v -0.3 0.8 -0.4
v -0.3 0.9 -0.4
v 0.7 0.6 -0.4
v 0.7 0.8 -0.4
v 0.7 0.9 -0.4
v 0.8 0.6 -0.4
v 0.8 0.8 -0.4
v -0.5 0 -0.5
v -0.5 0.6 -0.5
v -0.4 0.1 -0.5
v -0.4 0.5 -0.5
v -0.3 0.2 -0.5
v -0.3 0.4 -0.5
v 0.1 0 -0.5
v 0.1 0.1 -0.5
v 0.1 0.2 -0.5
v 0.3 0 -0.5
v 0.3 0.1 -0.5
v 0.3 0.2 -0.5
v 0.7 0.2 -0.5
v 0.7 0.4 -0.5
v 0.8 0.1 -0.5
v 0.8 0.5 -0.5
v 0.9 0 -0.5
v 0.9 0.6 -0.5
v -0.5 0 -0.2
v 0.9 0 -0.2
v 0.1 0 -0.4
v 0.3 0 -0.4
v -0.5 0 -0.5
v 0.1 0 -0.5
v 0.3 0 -0.5
v 0.9 0 -0.5
v -0.3 0.8 -0.3
v 0.7 0.8 -0.3
v -0.3 0.8 -0.4
v 0.7 0.8 -0.4
v -0.5 0.6 -0.2
v 0.9 0.6 -0.2
v -0.5 0.6 -0.3
v -0.4 0.6 -0.3
v -0.3 0.6 -0.3
v 0.7 0.6 -0.3
v 0.8 0.6 -0.3
v -0.5 0.6 -0.4
v -0.4 0.6 -0.4
v -0.3 0.6 -0.4
v 0.7 0.6 -0.4
v 0.8 0.6 -0.4
v -0.5 0.6 -0.5
v 0.9 0.6 -0.5
v -0.4 0.8 -0.3
v -0.3 0.8 -0.3
v 0.7 0.8 -0.3
v 0.8 0.8 -0.3
v -0.4 0.8 -0.4
v -0.3 0.8 -0.4
v 0.7 0.8 -0.4
v 0.8 0.8 -0.4
v -0.3 0.9 -0.3
v 0.7 0.9 -0.3
v -0.3 0.9 -0.4
v 0.7 0.9 -0.4
v -0.5 1.4 -0.3
v -0.4 1.4 -0.3
v -0.5 1.4 -0.4
v -0.4 1.4 -0.4

# faces
f 3/3/1 2/3/1 1/3/1
f 4/3/1 2/3/1 3/3/1
f 5/3/1 2/3/1 4/3/1
f 6/3/1 2/3/1 5/3/1
f 7/2/1 5/2/1 4/2/1
f 8/2/1 5/2/1 7/2/1
f 11/3/1 10/3/1 9/3/1
f 12/3/1 10/3/1 11/3/1
f 15/3/1 14/3/1 13/3/1
f 16/3/1 14/3/1 15/3/1
f 17/2/2 18/2/2 19/2/2
f 19/2/2 18/2/2 20/2/2
f 21/3/2 22/3/2 23/3/2
f 23/3/2 22/3/2 24/3/2
f 25/3/2 26/3/2 27/3/2
f 27/3/2 26/3/2 28/3/2
f 29/3/2 30/3/2 31/3/2
f 31/3/2 30/3/2 32/3/2
f 33/3/2 34/3/2 35/3/2
f 35/3/2 34/3/2 36/3/2
f 39/3/3 38/3/3 37/3/3
f 40/3/3 38/3/3 39/3/3
f 41/3/3 39/3/3 37/3/3
f 42/6/3 40/6/3 39/6/3
f 42/3/3 39/3/3 41/3/3
f 43/3/3 38/3/3 40/3/3
f 43/6/3 40/6/3 42/6/3
f 44/3/3 38/3/3 43/3/3
f 45/6/3 42/6/3 41/6/3
f 45/3/3 41/3/3 37/3/3
f 46/5/3 43/5/3 42/5/3
f 46/6/3 42/6/3 45/6/3
f 47/6/3 44/6/3 43/6/3
f 47/5/3 43/5/3 46/5/3
f 48/3/3 38/3/3 44/3/3
f 48/6/3 44/6/3 47/6/3
f 49/6/3 47/6/3 46/6/3
f 49/3/3 46/3/3 45/3/3
f 50/3/3 48/3/3 47/3/3
f 50/6/3 47/6/3 49/6/3
f 51/3/3 49/3/3 45/3/3
f 51/3/3 50/3/3 49/3/3
f 52/3/3 48/3/3 50/3/3
f 52/3/3 50/3/3 51/3/3
f 53/3/3 38/3/3 48/3/3
f 53/3/3 48/3/3 52/3/3
f 54/4/3 52/4/3 51/4/3
f 54/3/3 51/3/3 45/3/3
f 55/1/3 53/1/3 52/1/3
f 55/4/3 52/4/3 54/4/3
f 56/3/3 38/3/3 53/3/3
f 56/1/3 53/1/3 55/1/3
f 57/3/3 55/3/3 54/3/3
f 57/3/3 54/3/3 45/3/3
f 57/3/3 56/3/3 55/3/3
f 58/3/3 56/3/3 57/3/3
f 59/3/3 45/3/3 37/3/3
f 59/3/3 57/3/3 45/3/3
f 60/6/3 58/6/3 57/6/3
f 60/3/3 57/3/3 59/3/3
f 61/3/3 56/3/3 58/3/3
f 61/6/3 58/6/3 60/6/3
f 62/3/3 38/3/3 56/3/3
f 62/3/3 56/3/3 61/3/3
f 63/6/3 60/6/3 59/6/3
f 63/3/3 59/3/3 37/3/3
f 64/5/3 61/5/3 60/5/3
f 64/6/3 60/6/3 63/6/3
f 65/6/3 62/6/3 61/6/3
f 65/5/3 61/5/3 64/5/3
f 66/3/3 38/3/3 62/3/3
f 66/6/3 62/6/3 65/6/3
f 67/6/3 65/6/3 64/6/3
f 67/3/3 64/3/3 63/3/3
f 68/3/3 66/3/3 65/3/3
f 68/6/3 65/6/3 67/6/3
f 69/3/3 63/3/3 37/3/3
f 69/3/3 67/3/3 63/3/3
f 69/3/3 68/3/3 67/3/3
f 70/3/3 66/3/3 68/3/3
f 70/3/3 68/3/3 69/3/3
f 70/3/3 38/3/3 66/3/3
f 73/2/3 72/2/3 71/2/3
f 74/2/3 72/2/3 73/2/3
f 75/2/3 72/2/3 74/2/3
f 76/3/3 74/3/3 73/3/3
f 77/3/3 74/3/3 76/3/3
f 80/3/3 78/3/3 77/3/3
f 81/3/3 78/3/3 80/3/3
f 82/3/3 80/3/3 79/3/3
f 83/3/3 80/3/3 82/3/3
f 84/2/4 85/2/4 86/2/4
f 86/2/4 85/2/4 87/2/4
f 87/2/4 85/2/4 88/2/4
f 86/3/4 87/3/4 89/3/4
f 89/3/4 87/3/4 90/3/4
f 90/3/4 91/3/4 93/3/4
f 93/3/4 91/3/4 94/3/4
f 92/3/4 93/3/4 95/3/4
f 95/3/4 93/3/4 96/3/4
f 97/3/4 98/3/4 99/3/4
f 99/3/4 98/3/4 100/3/4
f 99/4/4 100/4/4 101/4/4
f 101/4/4 100/4/4 102/4/4
f 97/3/4 99/3/4 103/3/4
f 99/4/4 101/4/4 104/4/4
f 103/3/4 99/3/4 104/3/4
f 101/3/4 102/3/4 105/3/4
f 104/4/4 101/4/4 105/4/4
f 103/4/4 104/4/4 106/4/4
f 104/3/4 105/3/4 107/3/4
f 106/4/4 104/4/4 107/4/4
f 105/3/4 102/3/4 108/3/4
f 107/3/4 105/3/4 108/3/4
f 107/4/4 108/4/4 109/4/4
f 108/3/4 102/3/4 109/3/4
f 102/4/4 100/4/4 110/4/4
f 109/3/4 102/3/4 110/3/4
f 107/4/4 109/4/4 111/4/4
f 106/3/4 107/3/4 111/3/4
f 109/4/4 110/4/4 111/4/4
f 110/4/4 100/4/4 112/4/4
f 111/4/4 110/4/4 112/4/4
f 100/3/4 98/3/4 112/3/4
f 106/3/4 111/3/4 113/3/4
f 111/3/4 112/3/4 113/3/4
f 112/3/4 98/3/4 114/3/4
f 113/3/4 112/3/4 114/3/4
f 117/3/5 116/3/5 115/3/5
f 118/3/5 116/3/5 117/3/5
f 119/3/5 117/3/5 115/3/5
f 120/4/5 118/4/5 117/4/5
f 120/3/5 117/3/5 119/3/5
f 121/3/5 116/3/5 118/3/5
f 121/4/5 118/4/5 120/4/5
f 122/3/5 116/3/5 121/3/5
f 125/3/5 124/3/5 123/3/5
f 126/3/5 124/3/5 125/3/5
f 127/3/6 128/3/6 129/3/6
f 129/3/6 128/3/6 130/3/6
f 130/3/6 128/3/6 131/3/6
f 131/3/6 128/3/6 132/3/6
f 132/3/6 128/3/6 133/3/6
f 131/3/6 132/3/6 136/3/6
f 136/3/6 132/3/6 137/3/6
f 133/3/6 128/3/6 138/3/6
f 136/3/6 137/3/6 139/3/6
f 137/3/6 138/3/6 139/3/6
f 134/3/6 135/3/6 139/3/6
f 135/3/6 136/3/6 139/3/6
f 138/3/6 128/3/6 140/3/6
f 139/3/6 138/3/6 140/3/6
f 141/3/6 142/3/6 145/3/6
f 145/3/6 142/3/6 146/3/6
f 143/3/6 144/3/6 147/3/6
f 147/3/6 144/3/6 148/3/6
f 149/3/6 150/3/6 151/3/6
f 151/3/6 150/3/6 152/3/6
f 153/2/6 154/2/6 155/2/6
f 155/2/6 154/2/6 156/2/6
