# MagicaVoxel @ Ephtracy

# group
o 

# material
mtllib submarien.mtl
usemtl palette

# normals
vn -1 0 0
vn 1 0 0
vn 0 0 1
vn 0 0 -1
vn 0 -1 0
vn 0 1 0

# texcoords
vt 0.908203 0.5
vt 0.912109 0.5
vt 0.951172 0.5

# verts
v -0.6 0.7 0.1
v -0.6 0.7 0
v -0.6 0.8 0.1
v -0.6 0.8 0
v -0.5 0.6 0.1
v -0.5 0.6 0
v -0.5 0.7 0.2
v -0.5 0.7 0.1
v -0.5 0.7 0
v -0.5 0.7 -0.1
v -0.5 0.8 0.2
v -0.5 0.8 0.1
v -0.5 0.8 0
v -0.5 0.8 -0.1
v -0.5 0.9 0.1
v -0.5 0.9 0
v -0.4 0.6 0.2
v -0.4 0.6 0.1
v -0.4 0.6 0
v -0.4 0.6 -0.1
v -0.4 0.7 0.2
v -0.4 0.7 0.1
v -0.4 0.7 0
v -0.4 0.7 -0.1
v -0.4 0.8 0.2
v -0.4 0.8 0.1
v -0.4 0.8 0
v -0.4 0.8 -0.1
v -0.4 0.9 0.2
v -0.4 0.9 0.1
v -0.4 0.9 0
v -0.4 0.9 -0.1
v -0.3 0.5 0.1
v -0.3 0.5 0
v -0.3 0.6 0.1
v -0.3 0.6 0
v -0.3 0.7 0.3
v -0.3 0.7 0.2
v -0.3 0.7 -0.1
v -0.3 0.7 -0.2
v -0.3 0.8 0.3
v -0.3 0.8 0.2
v -0.3 0.8 -0.1
v -0.3 0.8 -0.2
v -0.3 0.9 0.1
v -0.3 0.9 0
v -0.3 1 0.1
v -0.3 1 0
v 0 0.9 0.2
v 0 0.9 0.1
v 0 0.9 0
v 0 0.9 -0.1
v 0 1 0.2
v 0 1 0.1
v 0 1 0
v 0 1 -0.1
v 0 1.1 0.2
v 0 1.1 -0.1
v 0 1.2 0.2
v 0 1.2 0.1
v 0 1.2 -0.1
v 0 1.5 0.2
v 0 1.5 0.1
v 0.8 0.6 0.1
v 0.8 0.6 0
v 0.8 0.7 0.2
v 0.8 0.7 0.1
v 0.8 0.7 0
v 0.8 0.7 -0.1
v 0.8 0.8 0.2
v 0.8 0.8 0.1
v 0.8 0.8 0
v 0.8 0.8 -0.1
v 0.8 0.9 0.1
v 0.8 0.9 0
v 0.1 1.2 0.2
v 0.1 1.2 0.1
v 0.1 1.5 0.2
v 0.1 1.5 0.1
v 0.2 1.1 0.2
v 0.2 1.1 0.1
v 0.2 1.1 0
v 0.2 1.1 -0.1
v 0.2 1.2 0.2
v 0.2 1.2 0.1
v 0.2 1.2 0
v 0.2 1.2 -0.1
v 0.3 0.9 0.2
v 0.3 0.9 0.1
v 0.3 0.9 0
v 0.3 0.9 -0.1
v 0.3 1 0.1
v 0.3 1 0
v 0.3 1.1 0.2
v 0.3 1.1 0.1
v 0.3 1.1 0
v 0.3 1.1 -0.1
v 0.3 1.2 0.1
v 0.3 1.2 0
v 0.6 0.5 0.1
v 0.6 0.5 0
v 0.6 0.6 0.1
v 0.6 0.6 0
v 0.6 0.7 0.3
v 0.6 0.7 0.2
v 0.6 0.7 -0.1
v 0.6 0.7 -0.2
v 0.6 0.8 0.3
v 0.6 0.8 0.2
v 0.6 0.8 -0.1
v 0.6 0.8 -0.2
v 0.6 0.9 0.1
v 0.6 0.9 0
v 0.6 1 0.1
v 0.6 1 0
v 0.7 0.6 0.2
v 0.7 0.6 -0.1
v 0.7 0.7 0.1
v 0.7 0.7 0
v 0.7 0.8 0.1
v 0.7 0.8 0
v 0.7 0.9 0.2
v 0.7 0.9 -0.1
v 1 0.6 0.1
v 1 0.6 0
v 1 0.7 0.2
v 1 0.7 0.1
v 1 0.7 0
v 1 0.7 -0.1
v 1 0.8 0.2
v 1 0.8 0.1
v 1 0.8 0
v 1 0.8 -0.1
v 1 0.9 0.1
v 1 0.9 0
v -0.3 0.7 0.3
v -0.3 0.8 0.3
v 0.6 0.7 0.3
v 0.6 0.8 0.3
v -0.5 0.7 0.2
v -0.5 0.8 0.2
v -0.4 0.6 0.2
v -0.4 0.7 0.2
v -0.4 0.8 0.2
v -0.4 0.9 0.2
v -0.3 0.7 0.2
v -0.3 0.8 0.2
v 0 0.9 0.2
v 0 1 0.2
v 0 1.1 0.2
v 0 1.2 0.2
v 0 1.5 0.2
v 0.1 1 0.2
v 0.1 1.1 0.2
v 0.1 1.2 0.2
v 0.1 1.5 0.2
v 0.2 1.1 0.2
v 0.2 1.2 0.2
v 0.3 0.9 0.2
v 0.3 1.1 0.2
v 0.6 0.7 0.2
v 0.6 0.8 0.2
v 0.7 0.6 0.2
v 0.7 0.9 0.2
v 0.8 0.7 0.2
v 0.8 0.8 0.2
v 1 0.7 0.2
v 1 0.8 0.2
v -0.6 0.7 0.1
v -0.6 0.8 0.1
v -0.5 0.6 0.1
v -0.5 0.7 0.1
v -0.5 0.8 0.1
v -0.5 0.9 0.1
v -0.4 0.6 0.1
v -0.4 0.7 0.1
v -0.4 0.8 0.1
v -0.4 0.9 0.1
v -0.3 0.5 0.1
v -0.3 0.6 0.1
v -0.3 0.9 0.1
v -0.3 1 0.1
v 0 0.9 0.1
v 0 1 0.1
v 0.2 1.1 0.1
v 0.2 1.2 0.1
v 0.3 0.9 0.1
v 0.3 1 0.1
v 0.3 1.1 0.1
v 0.3 1.2 0.1
v 0.6 0.5 0.1
v 0.6 0.6 0.1
v 0.6 0.9 0.1
v 0.6 1 0.1
v 0.7 0.7 0.1
v 0.7 0.8 0.1
v 0.8 0.6 0.1
v 0.8 0.7 0.1
v 0.8 0.8 0.1
v 0.8 0.9 0.1
v 1 0.6 0.1
v 1 0.7 0.1
v 1 0.8 0.1
v 1 0.9 0.1
v 0 1.2 0.1
v 0 1.5 0.1
v 0.1 1.2 0.1
v 0.1 1.5 0.1
v -0.6 0.7 0
v -0.6 0.8 0
v -0.5 0.6 0
v -0.5 0.7 0
v -0.5 0.8 0
v -0.5 0.9 0
v -0.4 0.6 0
v -0.4 0.7 0
v -0.4 0.8 0
v -0.4 0.9 0
v -0.3 0.5 0
v -0.3 0.6 0
v -0.3 0.9 0
v -0.3 1 0
v 0 0.9 0
v 0 1 0
v 0.2 1.1 0
v 0.2 1.2 0
v 0.3 0.9 0
v 0.3 1 0
v 0.3 1.1 0
v 0.3 1.2 0
v 0.6 0.5 0
v 0.6 0.6 0
v 0.6 0.9 0
v 0.6 1 0
v 0.7 0.7 0
v 0.7 0.8 0
v 0.8 0.6 0
v 0.8 0.7 0
v 0.8 0.8 0
v 0.8 0.9 0
v 1 0.6 0
v 1 0.7 0
v 1 0.8 0
v 1 0.9 0
v -0.5 0.7 -0.1
v -0.5 0.8 -0.1
v -0.4 0.6 -0.1
v -0.4 0.7 -0.1
v -0.4 0.8 -0.1
v -0.4 0.9 -0.1
v -0.3 0.7 -0.1
v -0.3 0.8 -0.1
v 0 0.9 -0.1
v 0 1 -0.1
v 0 1.1 -0.1
v 0 1.2 -0.1
v 0.1 1 -0.1
v 0.1 1.1 -0.1
v 0.2 1.1 -0.1
v 0.2 1.2 -0.1
v 0.3 0.9 -0.1
v 0.3 1.1 -0.1
v 0.6 0.7 -0.1
v 0.6 0.8 -0.1
v 0.7 0.6 -0.1
v 0.7 0.9 -0.1
v 0.8 0.7 -0.1
v 0.8 0.8 -0.1
v 1 0.7 -0.1
v 1 0.8 -0.1
v -0.3 0.7 -0.2
v -0.3 0.8 -0.2
v 0.6 0.7 -0.2
v 0.6 0.8 -0.2
v -0.3 0.5 0.1
v 0.6 0.5 0.1
v -0.3 0.5 0
v 0.6 0.5 0
v -0.4 0.6 0.2
v 0.7 0.6 0.2
v -0.5 0.6 0.1
v -0.4 0.6 0.1
v -0.3 0.6 0.1
v 0.6 0.6 0.1
v 0.8 0.6 0.1
v 1 0.6 0.1
v -0.5 0.6 0
v -0.4 0.6 0
v -0.3 0.6 0
v 0.6 0.6 0
v 0.8 0.6 0
v 1 0.6 0
v -0.4 0.6 -0.1
v 0.7 0.6 -0.1
v -0.3 0.7 0.3
v 0.6 0.7 0.3
v -0.5 0.7 0.2
v -0.4 0.7 0.2
v -0.3 0.7 0.2
v 0.6 0.7 0.2
v 0.8 0.7 0.2
v 1 0.7 0.2
v -0.6 0.7 0.1
v -0.5 0.7 0.1
v -0.4 0.7 0.1
v 0.7 0.7 0.1
v 0.8 0.7 0.1
v 1 0.7 0.1
v -0.6 0.7 0
v -0.5 0.7 0
v -0.4 0.7 0
v 0.7 0.7 0
v 0.8 0.7 0
v 1 0.7 0
v -0.5 0.7 -0.1
v -0.4 0.7 -0.1
v -0.3 0.7 -0.1
v 0.6 0.7 -0.1
v 0.8 0.7 -0.1
v 1 0.7 -0.1
v -0.3 0.7 -0.2
v 0.6 0.7 -0.2
v -0.3 0.8 0.3
v 0.6 0.8 0.3
v -0.5 0.8 0.2
v -0.4 0.8 0.2
v -0.3 0.8 0.2
v 0.6 0.8 0.2
v 0.8 0.8 0.2
v 1 0.8 0.2
v -0.6 0.8 0.1
v -0.5 0.8 0.1
v -0.4 0.8 0.1
v 0.7 0.8 0.1
v 0.8 0.8 0.1
v 1 0.8 0.1
v -0.6 0.8 0
v -0.5 0.8 0
v -0.4 0.8 0
v 0.7 0.8 0
v 0.8 0.8 0
v 1 0.8 0
v -0.5 0.8 -0.1
v -0.4 0.8 -0.1
v -0.3 0.8 -0.1
v 0.6 0.8 -0.1
v 0.8 0.8 -0.1
v 1 0.8 -0.1
v -0.3 0.8 -0.2
v 0.6 0.8 -0.2
v -0.4 0.9 0.2
v 0 0.9 0.2
v 0.3 0.9 0.2
v 0.7 0.9 0.2
v -0.5 0.9 0.1
v -0.4 0.9 0.1
v -0.3 0.9 0.1
v 0 0.9 0.1
v 0.3 0.9 0.1
v 0.6 0.9 0.1
v 0.8 0.9 0.1
v 1 0.9 0.1
v -0.5 0.9 0
v -0.4 0.9 0
v -0.3 0.9 0
v 0 0.9 0
v 0.3 0.9 0
v 0.6 0.9 0
v 0.8 0.9 0
v 1 0.9 0
v -0.4 0.9 -0.1
v 0 0.9 -0.1
v 0.3 0.9 -0.1
v 0.7 0.9 -0.1
v -0.3 1 0.1
v 0 1 0.1
v 0.3 1 0.1
v 0.6 1 0.1
v -0.3 1 0
v 0 1 0
v 0.3 1 0
v 0.6 1 0
v 0.2 1.1 0.2
v 0.3 1.1 0.2
v 0.2 1.1 0.1
v 0.3 1.1 0.1
v 0.2 1.1 0
v 0.3 1.1 0
v 0.2 1.1 -0.1
v 0.3 1.1 -0.1
v 0.1 1.2 0.2
v 0.2 1.2 0.2
v 0 1.2 0.1
v 0.1 1.2 0.1
v 0.2 1.2 0.1
v 0.3 1.2 0.1
v 0.2 1.2 0
v 0.3 1.2 0
v 0 1.2 -0.1
v 0.2 1.2 -0.1
v 0 1.5 0.2
v 0.1 1.5 0.2
v 0 1.5 0.1
v 0.1 1.5 0.1

# faces
f 3/2/1 2/2/1 1/2/1
f 4/2/1 2/2/1 3/2/1
f 8/2/1 6/2/1 5/2/1
f 9/2/1 6/2/1 8/2/1
f 11/2/1 8/2/1 7/2/1
f 12/2/1 8/2/1 11/2/1
f 13/2/1 10/2/1 9/2/1
f 14/2/1 10/2/1 13/2/1
f 15/2/1 13/2/1 12/2/1
f 16/2/1 13/2/1 15/2/1
f 21/2/1 18/2/1 17/2/1
f 22/2/1 18/2/1 21/2/1
f 23/2/1 20/2/1 19/2/1
f 24/2/1 20/2/1 23/2/1
f 29/2/1 26/2/1 25/2/1
f 30/2/1 26/2/1 29/2/1
f 31/2/1 28/2/1 27/2/1
f 32/2/1 28/2/1 31/2/1
f 35/2/1 34/2/1 33/2/1
f 36/2/1 34/2/1 35/2/1
f 41/2/1 38/2/1 37/2/1
f 42/2/1 38/2/1 41/2/1
f 43/2/1 40/2/1 39/2/1
f 44/2/1 40/2/1 43/2/1
f 47/2/1 46/2/1 45/2/1
f 48/2/1 46/2/1 47/2/1
f 53/2/1 50/2/1 49/2/1
f 54/2/1 50/2/1 53/2/1
f 55/2/1 52/2/1 51/2/1
f 56/2/1 52/2/1 55/2/1
f 57/3/1 54/3/1 53/3/1
f 57/3/1 55/3/1 54/3/1
f 57/3/1 56/3/1 55/3/1
f 58/3/1 56/3/1 57/3/1
f 59/2/1 58/2/1 57/2/1
f 60/2/1 58/2/1 59/2/1
f 61/2/1 58/2/1 60/2/1
f 62/1/1 60/1/1 59/1/1
f 63/1/1 60/1/1 62/1/1
f 67/1/1 65/1/1 64/1/1
f 68/1/1 65/1/1 67/1/1
f 70/1/1 67/1/1 66/1/1
f 71/1/1 67/1/1 70/1/1
f 72/1/1 69/1/1 68/1/1
f 73/1/1 69/1/1 72/1/1
f 74/1/1 72/1/1 71/1/1
f 75/1/1 72/1/1 74/1/1
f 76/1/2 77/1/2 78/1/2
f 78/1/2 77/1/2 79/1/2
f 80/2/2 81/2/2 84/2/2
f 84/2/2 81/2/2 85/2/2
f 82/2/2 83/2/2 86/2/2
f 86/2/2 83/2/2 87/2/2
f 88/2/2 89/2/2 92/2/2
f 90/2/2 91/2/2 93/2/2
f 88/2/2 92/2/2 94/2/2
f 92/2/2 93/2/2 94/2/2
f 94/2/2 93/2/2 95/2/2
f 93/2/2 91/2/2 96/2/2
f 95/2/2 93/2/2 96/2/2
f 96/2/2 91/2/2 97/2/2
f 95/2/2 96/2/2 98/2/2
f 98/2/2 96/2/2 99/2/2
f 100/2/2 101/2/2 102/2/2
f 102/2/2 101/2/2 103/2/2
f 104/2/2 105/2/2 108/2/2
f 108/2/2 105/2/2 109/2/2
f 106/2/2 107/2/2 110/2/2
f 110/2/2 107/2/2 111/2/2
f 112/2/2 113/2/2 114/2/2
f 114/2/2 113/2/2 115/2/2
f 116/2/2 117/2/2 118/2/2
f 118/2/2 117/2/2 119/2/2
f 116/2/2 118/2/2 120/2/2
f 119/2/2 117/2/2 121/2/2
f 116/2/2 120/2/2 122/2/2
f 120/2/2 121/2/2 122/2/2
f 121/2/2 117/2/2 123/2/2
f 122/2/2 121/2/2 123/2/2
f 124/1/2 125/1/2 127/1/2
f 127/1/2 125/1/2 128/1/2
f 126/1/2 127/1/2 130/1/2
f 128/1/2 129/1/2 130/1/2
f 127/1/2 128/1/2 130/1/2
f 130/1/2 129/1/2 131/1/2
f 131/1/2 129/1/2 132/1/2
f 132/1/2 129/1/2 133/1/2
f 131/1/2 132/1/2 134/1/2
f 134/1/2 132/1/2 135/1/2
f 138/2/3 137/2/3 136/2/3
f 139/2/3 137/2/3 138/2/3
f 143/2/3 141/2/3 140/2/3
f 144/2/3 141/2/3 143/2/3
f 146/2/3 143/2/3 142/2/3
f 146/2/3 145/2/3 144/2/3
f 146/2/3 144/2/3 143/2/3
f 147/2/3 145/2/3 146/2/3
f 148/2/3 145/2/3 147/2/3
f 153/2/3 149/2/3 148/2/3
f 153/3/3 150/3/3 149/3/3
f 154/2/3 151/2/3 150/2/3
f 154/3/3 150/3/3 153/3/3
f 155/1/3 152/1/3 151/1/3
f 155/2/3 151/2/3 154/2/3
f 156/1/3 152/1/3 155/1/3
f 157/2/3 154/2/3 153/2/3
f 157/2/3 155/2/3 154/2/3
f 158/2/3 155/2/3 157/2/3
f 159/2/3 148/2/3 147/2/3
f 159/2/3 153/2/3 148/2/3
f 159/2/3 157/2/3 153/2/3
f 160/2/3 157/2/3 159/2/3
f 161/2/3 146/2/3 142/2/3
f 162/2/3 159/2/3 147/2/3
f 163/2/3 161/2/3 142/2/3
f 163/2/3 162/2/3 161/2/3
f 164/2/3 159/2/3 162/2/3
f 164/2/3 162/2/3 163/2/3
f 167/1/3 166/1/3 165/1/3
f 168/1/3 166/1/3 167/1/3
f 172/2/3 170/2/3 169/2/3
f 173/2/3 170/2/3 172/2/3
f 175/2/3 172/2/3 171/2/3
f 176/2/3 172/2/3 175/2/3
f 177/2/3 174/2/3 173/2/3
f 178/2/3 174/2/3 177/2/3
f 183/2/3 182/2/3 181/2/3
f 184/2/3 182/2/3 183/2/3
f 189/2/3 186/2/3 185/2/3
f 190/2/3 186/2/3 189/2/3
f 191/2/3 180/2/3 179/2/3
f 192/2/3 180/2/3 191/2/3
f 193/2/3 188/2/3 187/2/3
f 194/2/3 188/2/3 193/2/3
f 198/1/3 196/1/3 195/1/3
f 199/1/3 196/1/3 198/1/3
f 201/1/3 198/1/3 197/1/3
f 202/1/3 198/1/3 201/1/3
f 203/1/3 200/1/3 199/1/3
f 204/1/3 200/1/3 203/1/3
f 205/1/4 206/1/4 207/1/4
f 207/1/4 206/1/4 208/1/4
f 209/2/4 210/2/4 212/2/4
f 212/2/4 210/2/4 213/2/4
f 211/2/4 212/2/4 215/2/4
f 215/2/4 212/2/4 216/2/4
f 213/2/4 214/2/4 217/2/4
f 217/2/4 214/2/4 218/2/4
f 221/2/4 222/2/4 223/2/4
f 223/2/4 222/2/4 224/2/4
f 225/2/4 226/2/4 229/2/4
f 229/2/4 226/2/4 230/2/4
f 219/2/4 220/2/4 231/2/4
f 231/2/4 220/2/4 232/2/4
f 227/2/4 228/2/4 233/2/4
f 233/2/4 228/2/4 234/2/4
f 235/1/4 236/1/4 238/1/4
f 238/1/4 236/1/4 239/1/4
f 237/1/4 238/1/4 241/1/4
f 241/1/4 238/1/4 242/1/4
f 239/1/4 240/1/4 243/1/4
f 243/1/4 240/1/4 244/1/4
f 245/2/4 246/2/4 248/2/4
f 248/2/4 246/2/4 249/2/4
f 247/2/4 248/2/4 251/2/4
f 249/2/4 250/2/4 251/2/4
f 248/2/4 249/2/4 251/2/4
f 251/2/4 250/2/4 252/2/4
f 252/2/4 250/2/4 253/2/4
f 253/2/4 254/2/4 257/2/4
f 254/3/4 255/3/4 257/3/4
f 255/2/4 256/2/4 258/2/4
f 257/3/4 255/3/4 258/3/4
f 257/2/4 258/2/4 259/2/4
f 258/2/4 256/2/4 259/2/4
f 259/2/4 256/2/4 260/2/4
f 252/2/4 253/2/4 261/2/4
f 253/2/4 257/2/4 261/2/4
f 257/2/4 259/2/4 261/2/4
f 261/2/4 259/2/4 262/2/4
f 247/2/4 251/2/4 263/2/4
f 252/2/4 261/2/4 264/2/4
f 247/2/4 263/2/4 265/2/4
f 263/2/4 264/2/4 265/2/4
f 264/2/4 261/2/4 266/2/4
f 265/2/4 264/2/4 266/2/4
f 267/1/4 268/1/4 269/1/4
f 269/1/4 268/1/4 270/1/4
f 271/2/4 272/2/4 273/2/4
f 273/2/4 272/2/4 274/2/4
f 277/2/5 276/2/5 275/2/5
f 278/2/5 276/2/5 277/2/5
f 282/2/5 280/2/5 279/2/5
f 283/2/5 280/2/5 282/2/5
f 284/2/5 280/2/5 283/2/5
f 287/2/5 282/2/5 281/2/5
f 287/2/5 283/2/5 282/2/5
f 288/2/5 283/2/5 287/2/5
f 289/2/5 283/2/5 288/2/5
f 290/2/5 280/2/5 284/2/5
f 291/1/5 286/1/5 285/1/5
f 292/1/5 286/1/5 291/1/5
f 293/2/5 290/2/5 289/2/5
f 293/2/5 289/2/5 288/2/5
f 294/2/5 280/2/5 290/2/5
f 294/2/5 290/2/5 293/2/5
f 299/2/5 296/2/5 295/2/5
f 300/2/5 296/2/5 299/2/5
f 304/2/5 298/2/5 297/2/5
f 305/2/5 298/2/5 304/2/5
f 307/1/5 302/1/5 301/1/5
f 308/1/5 302/1/5 307/1/5
f 309/2/5 304/2/5 303/2/5
f 310/2/5 304/2/5 309/2/5
f 312/1/5 307/1/5 306/1/5
f 313/1/5 307/1/5 312/1/5
f 315/2/5 311/2/5 310/2/5
f 316/2/5 311/2/5 315/2/5
f 319/1/5 314/1/5 313/1/5
f 320/1/5 314/1/5 319/1/5
f 321/2/5 318/2/5 317/2/5
f 322/2/5 318/2/5 321/2/5
f 323/2/6 324/2/6 327/2/6
f 327/2/6 324/2/6 328/2/6
f 325/2/6 326/2/6 332/2/6
f 332/2/6 326/2/6 333/2/6
f 329/1/6 330/1/6 335/1/6
f 335/1/6 330/1/6 336/1/6
f 331/2/6 332/2/6 337/2/6
f 337/2/6 332/2/6 338/2/6
f 334/1/6 335/1/6 340/1/6
f 340/1/6 335/1/6 341/1/6
f 338/2/6 339/2/6 343/2/6
f 343/2/6 339/2/6 344/2/6
f 341/1/6 342/1/6 347/1/6
f 347/1/6 342/1/6 348/1/6
f 345/2/6 346/2/6 349/2/6
f 349/2/6 346/2/6 350/2/6
f 351/2/6 352/2/6 356/2/6
f 356/2/6 352/2/6 357/2/6
f 357/2/6 352/2/6 358/2/6
f 353/2/6 354/2/6 359/2/6
f 359/2/6 354/2/6 360/2/6
f 355/2/6 356/2/6 363/2/6
f 356/2/6 357/2/6 363/2/6
f 363/2/6 357/2/6 364/2/6
f 364/2/6 357/2/6 365/2/6
f 360/2/6 354/2/6 368/2/6
f 361/1/6 362/1/6 369/1/6
f 369/1/6 362/1/6 370/1/6
f 365/2/6 366/2/6 371/2/6
f 364/2/6 365/2/6 371/2/6
f 371/2/6 366/2/6 372/2/6
f 367/2/6 368/2/6 373/2/6
f 368/2/6 354/2/6 374/2/6
f 373/2/6 368/2/6 374/2/6
f 375/2/6 376/2/6 379/2/6
f 379/2/6 376/2/6 380/2/6
f 377/2/6 378/2/6 381/2/6
f 381/2/6 378/2/6 382/2/6
f 383/2/6 384/2/6 385/2/6
f 385/2/6 384/2/6 386/2/6
f 387/2/6 388/2/6 389/2/6
f 389/2/6 388/2/6 390/2/6
f 391/2/6 392/2/6 394/2/6
f 394/2/6 392/2/6 395/2/6
f 393/2/6 394/2/6 397/2/6
f 395/2/6 396/2/6 397/2/6
f 394/2/6 395/2/6 397/2/6
f 397/2/6 396/2/6 398/2/6
f 393/2/6 397/2/6 399/2/6
f 399/2/6 397/2/6 400/2/6
f 401/1/6 402/1/6 403/1/6
f 403/1/6 402/1/6 404/1/6
